<svg xmlns="http://www.w3.org/2000/svg" xmlns:xlink="http://www.w3.org/1999/xlink" version="1.1" width="256" height="256" viewBox="0 0 256 256" xml:space="preserve">
<g style="stroke: none; stroke-width: 0; stroke-dasharray: none; stroke-linecap: butt; stroke-linejoin: miter; stroke-miterlimit: 10; fill: none; fill-rule: nonzero; opacity: 1;" transform="translate(1.4065934065934016 1.4065934065934016) scale(2.81 2.81)">
	<path d="M 10.045 80.456 V 9.626 C 10.045 4.31 14.354 0 19.671 0 h 53.583 c 3.702 0 6.703 3.001 6.703 6.703 v 66.454 C 79.2 77.048 39.975 78.377 10.045 80.456 z" style="stroke: none; stroke-width: 1; stroke-dasharray: none; stroke-linecap: butt; stroke-linejoin: miter; stroke-miterlimit: 10; fill: rgb(226,161,0); fill-rule: nonzero; opacity: 1;" transform=" matrix(1 0 0 1 0 0) " stroke-linecap="round"/>
	<path d="M 19.59 0 v 78.124 l -9.545 2.332 V 9.626 C 10.045 4.31 14.354 0 19.671 0" style="stroke: none; stroke-width: 1; stroke-dasharray: none; stroke-linecap: butt; stroke-linejoin: miter; stroke-miterlimit: 10; fill: rgb(196,135,0); fill-rule: nonzero; opacity: 1;" transform=" matrix(1 0 0 1 0 0) " stroke-linecap="round"/>
	<path d="M 75.249 75.404 h 2.459 c 1.241 0 2.247 -1.006 2.247 -2.247 l 0 0 c 0 -1.241 -1.006 -2.247 -2.247 -2.247 h -58.12 c -5.272 0 -9.545 4.273 -9.545 9.545 l 0 0 c 0 5.272 4.273 9.545 9.545 9.545 h 58.12 c 1.241 0 2.247 -1.006 2.247 -2.247 l 0 0 c 0 -1.241 -1.006 -2.247 -2.247 -2.247 h -2.459 V 75.404 z" style="stroke: none; stroke-width: 1; stroke-dasharray: none; stroke-linecap: butt; stroke-linejoin: miter; stroke-miterlimit: 10; fill: rgb(196,135,0); fill-rule: nonzero; opacity: 1;" transform=" matrix(1 0 0 1 0 0) " stroke-linecap="round"/>
	<path d="M 20.185 85.508 h 57.11 V 75.404 h -57.11 c -2.79 0 -5.052 2.262 -5.052 5.052 l 0 0 C 15.133 83.246 17.395 85.508 20.185 85.508 z" style="stroke: none; stroke-width: 1; stroke-dasharray: none; stroke-linecap: butt; stroke-linejoin: miter; stroke-miterlimit: 10; fill: rgb(255,246,225); fill-rule: nonzero; opacity: 1;" transform=" matrix(1 0 0 1 0 0) " stroke-linecap="round"/>
	<circle cx="47.001999999999995" cy="38.192" r="20.142" style="stroke: none; stroke-width: 1; stroke-dasharray: none; stroke-linecap: butt; stroke-linejoin: miter; stroke-miterlimit: 10; fill: rgb(255,246,225); fill-rule: nonzero; opacity: 1;" transform="  matrix(1 0 0 1 0 0) "/>
	<path d="M 42.614 36.97 c -0.141 0.594 0.152 1.2 0.699 1.471 c 0.875 0.434 1.424 1.403 1.255 2.441 l -1.427 8.774 c -0.174 1.066 0.55 2.071 1.616 2.245 l 0 0 c 1.578 0.257 3.191 0.142 4.711 -0.331 c 0.437 -0.136 0.768 -0.498 0.874 -0.944 l 0.242 -1.021 c 0.141 -0.594 -0.152 -1.2 -0.699 -1.471 c -0.875 -0.434 -1.424 -1.403 -1.255 -2.441 l 1.427 -8.774 c 0.174 -1.066 -0.55 -2.071 -1.616 -2.245 l 0 0 c -1.578 -0.257 -3.191 -0.142 -4.711 0.331 c -0.437 0.136 -0.768 0.498 -0.874 0.944 L 42.614 36.97 z" style="stroke: none; stroke-width: 1; stroke-dasharray: none; stroke-linecap: butt; stroke-linejoin: miter; stroke-miterlimit: 10; fill: rgb(196,135,0); fill-rule: nonzero; opacity: 1;" transform=" matrix(1 0 0 1 0 0) " stroke-linecap="round"/>
	<circle cx="48.184000000000005" cy="28.293999999999997" r="3.234" style="stroke: none; stroke-width: 1; stroke-dasharray: none; stroke-linecap: butt; stroke-linejoin: miter; stroke-miterlimit: 10; fill: rgb(196,135,0); fill-rule: nonzero; opacity: 1;" transform="  matrix(1 0 0 1 0 0) "/>
</g>
</svg>