<svg xmlns="http://www.w3.org/2000/svg" xmlns:xlink="http://www.w3.org/1999/xlink" version="1.1" width="256" height="256" viewBox="0 0 256 256" xml:space="preserve">
<g style="stroke: none; stroke-width: 0; stroke-dasharray: none; stroke-linecap: butt; stroke-linejoin: miter; stroke-miterlimit: 10; fill: none; fill-rule: nonzero; opacity: 1;" transform="translate(1.4065934065934016 1.4065934065934016) scale(2.81 2.81)">
	<path d="M 45.738 76.387 c -2.323 3.451 1.186 8.394 5.706 5.26 c 1.07 -0.757 2.449 -1.194 4.183 -1.266 L 90 80.499 V 25.296 H 52.86 L 45.738 76.387" style="stroke: none; stroke-width: 1; stroke-dasharray: none; stroke-linecap: butt; stroke-linejoin: miter; stroke-miterlimit: 10; fill: rgb(255,180,59); fill-rule: nonzero; opacity: 1;" transform=" matrix(1 0 0 1 0 0) " stroke-linecap="round"/>
	<path d="M 44.262 76.387 c 2.323 3.451 -1.186 8.394 -5.706 5.26 c -1.07 -0.757 -2.449 -1.194 -4.183 -1.266 L 0 80.499 V 25.296 h 37.14 L 44.262 76.387" style="stroke: none; stroke-width: 1; stroke-dasharray: none; stroke-linecap: butt; stroke-linejoin: miter; stroke-miterlimit: 10; fill: rgb(255,180,59); fill-rule: nonzero; opacity: 1;" transform=" matrix(1 0 0 1 0 0) " stroke-linecap="round"/>
	<path d="M 45.024 78.339 c 0.962 -4.374 4.935 -6.268 10.053 -6.268 h 27.556 V 18.169 H 55.077 c -5.118 0 -8.768 1.559 -10.077 5.283" style="stroke: none; stroke-width: 1; stroke-dasharray: none; stroke-linecap: butt; stroke-linejoin: miter; stroke-miterlimit: 10; fill: rgb(232,227,217); fill-rule: nonzero; opacity: 1;" transform=" matrix(1 0 0 1 0 0) " stroke-linecap="round"/>
	<path d="M 44.976 78.339 c -0.962 -4.374 -4.935 -6.268 -10.053 -6.268 H 7.367 V 18.169 h 27.556 c 5.118 0 8.768 1.559 10.077 5.283 L 44.976 78.339 z" style="stroke: none; stroke-width: 1; stroke-dasharray: none; stroke-linecap: butt; stroke-linejoin: miter; stroke-miterlimit: 10; fill: rgb(239,237,232); fill-rule: nonzero; opacity: 1;" transform=" matrix(1 0 0 1 0 0) " stroke-linecap="round"/>
	<path d="M 59.84 20.795 c -1.05 0 -1.992 -0.604 -2.474 -1.537 c -0.096 -0.186 -0.197 -0.371 -0.303 -0.554 c -0.106 -0.183 -0.215 -0.363 -0.328 -0.539 c -0.566 -0.884 -0.619 -2.002 -0.094 -2.911 c 0.763 -1.321 0.31 -3.01 -1.011 -3.773 l -3.658 -2.112 c -1.321 -0.763 -3.01 -0.31 -3.773 1.011 l -0.001 0.001 c -0.517 0.896 -1.492 1.424 -2.525 1.374 c -0.449 -0.022 -0.9 -0.022 -1.351 0 c -1.031 0.05 -2.004 -0.48 -2.52 -1.374 l 0 -0.001 c -0.763 -1.321 -2.452 -1.773 -3.773 -1.011 l -3.658 2.112 c -1.321 0.763 -1.773 2.452 -1.011 3.773 l 0 0.001 c 0.516 0.894 0.489 2.001 -0.07 2.869 c -0.244 0.38 -0.47 0.771 -0.676 1.17 c -0.473 0.92 -1.418 1.5 -2.452 1.5 H 30.16 c -1.525 0 -2.762 1.237 -2.762 2.762 v 4.224 c 0 1.525 1.236 2.762 2.762 2.762 c 1.05 0 1.992 0.604 2.474 1.537 c 0.096 0.186 0.197 0.37 0.303 0.554 c 0.106 0.183 0.215 0.363 0.328 0.539 c 0.566 0.884 0.619 2.002 0.094 2.911 c -0.763 1.321 -0.31 3.01 1.011 3.773 l 3.658 2.112 c 1.321 0.763 3.01 0.31 3.773 -1.011 l 0.001 -0.001 c 0.517 -0.896 1.492 -1.424 2.525 -1.374 c 0.449 0.022 0.9 0.022 1.351 0 c 1.031 -0.05 2.004 0.48 2.52 1.374 l 0 0.001 c 0.763 1.321 2.452 1.773 3.773 1.011 l 3.658 -2.112 c 1.321 -0.763 1.773 -2.452 1.011 -3.773 l 0 -0.001 c -0.516 -0.894 -0.489 -2.001 0.07 -2.869 c 0.244 -0.38 0.47 -0.771 0.676 -1.17 c 0.473 -0.92 1.418 -1.5 2.452 -1.5 h 0.002 c 1.525 0 2.762 -1.236 2.762 -2.762 v -4.225 C 62.601 22.031 61.365 20.795 59.84 20.795 z" style="stroke: none; stroke-width: 1; stroke-dasharray: none; stroke-linecap: butt; stroke-linejoin: miter; stroke-miterlimit: 10; fill: rgb(255,180,59); fill-rule: nonzero; opacity: 1;" transform=" matrix(1 0 0 1 0 0) " stroke-linecap="round"/>
	<path d="M 12.526 52.169 c 2.55 -0.414 5.1 -0.63 7.65 -0.777 c 2.55 -0.16 5.1 -0.202 7.65 -0.222 c 1.288 0.023 2.521 0.009 3.854 0.067 c 1.322 0.099 2.665 0.255 3.954 0.701 c 1.286 0.419 2.542 1.068 3.521 2.036 c 0.987 0.954 1.623 2.209 1.847 3.478 c -0.645 -1.121 -1.447 -2.086 -2.469 -2.718 c -0.986 -0.673 -2.137 -1.038 -3.301 -1.288 c -2.344 -0.487 -4.826 -0.268 -7.405 -0.278 c -2.55 -0.02 -5.1 -0.062 -7.65 -0.222 C 17.626 52.799 15.076 52.583 12.526 52.169 z" style="stroke: none; stroke-width: 1; stroke-dasharray: none; stroke-linecap: butt; stroke-linejoin: miter; stroke-miterlimit: 10; fill: rgb(173,161,138); fill-rule: nonzero; opacity: 1;" transform=" matrix(1 0 0 1 0 0) " stroke-linecap="round"/>
	<path d="M 12.526 60.169 c 2.55 -0.414 5.1 -0.63 7.65 -0.777 c 2.55 -0.16 5.1 -0.202 7.65 -0.222 c 1.288 0.023 2.521 0.009 3.854 0.067 c 1.322 0.099 2.665 0.255 3.954 0.701 c 1.286 0.419 2.542 1.068 3.521 2.036 c 0.987 0.954 1.623 2.209 1.847 3.478 c -0.645 -1.121 -1.447 -2.086 -2.469 -2.718 c -0.986 -0.673 -2.137 -1.038 -3.301 -1.288 c -2.344 -0.487 -4.826 -0.268 -7.405 -0.278 c -2.55 -0.02 -5.1 -0.062 -7.65 -0.222 C 17.626 60.799 15.076 60.583 12.526 60.169 z" style="stroke: none; stroke-width: 1; stroke-dasharray: none; stroke-linecap: butt; stroke-linejoin: miter; stroke-miterlimit: 10; fill: rgb(173,161,138); fill-rule: nonzero; opacity: 1;" transform=" matrix(1 0 0 1 0 0) " stroke-linecap="round"/>
	<path d="M 78 52.169 c -2.55 0.414 -5.1 0.63 -7.65 0.777 c -2.55 0.16 -5.1 0.202 -7.65 0.222 c -2.58 0.01 -5.061 -0.21 -7.405 0.278 c -1.164 0.25 -2.315 0.615 -3.301 1.288 c -1.022 0.632 -1.823 1.597 -2.469 2.718 c 0.223 -1.269 0.86 -2.524 1.847 -3.478 c 0.979 -0.968 2.234 -1.617 3.521 -2.036 c 1.289 -0.446 2.632 -0.602 3.954 -0.701 c 1.333 -0.058 2.566 -0.044 3.854 -0.067 c 2.55 0.02 5.1 0.063 7.65 0.222 C 72.9 51.539 75.45 51.755 78 52.169 z" style="stroke: none; stroke-width: 1; stroke-dasharray: none; stroke-linecap: butt; stroke-linejoin: miter; stroke-miterlimit: 10; fill: rgb(173,161,138); fill-rule: nonzero; opacity: 1;" transform=" matrix(1 0 0 1 0 0) " stroke-linecap="round"/>
	<path d="M 78 60.169 c -2.55 0.414 -5.1 0.63 -7.65 0.777 c -2.55 0.16 -5.1 0.202 -7.65 0.222 c -2.58 0.01 -5.061 -0.21 -7.405 0.278 c -1.164 0.25 -2.315 0.615 -3.301 1.288 c -1.022 0.632 -1.823 1.597 -2.469 2.718 c 0.223 -1.269 0.86 -2.524 1.847 -3.478 c 0.979 -0.968 2.234 -1.617 3.521 -2.036 c 1.289 -0.446 2.632 -0.602 3.954 -0.701 c 1.333 -0.058 2.566 -0.044 3.854 -0.067 c 2.55 0.02 5.1 0.063 7.65 0.222 C 72.9 59.539 75.45 59.755 78 60.169 z" style="stroke: none; stroke-width: 1; stroke-dasharray: none; stroke-linecap: butt; stroke-linejoin: miter; stroke-miterlimit: 10; fill: rgb(173,161,138); fill-rule: nonzero; opacity: 1;" transform=" matrix(1 0 0 1 0 0) " stroke-linecap="round"/>
	<path d="M 70.35 27.392 c -0.969 -0.061 -1.938 -0.092 -2.908 -0.124 c -0.041 0.61 -0.102 1.215 -0.191 1.811 c 1.033 -0.033 2.066 -0.068 3.098 -0.132 c 2.55 -0.147 5.1 -0.364 7.65 -0.777 C 75.45 27.755 72.9 27.539 70.35 27.392 z" style="stroke: none; stroke-width: 1; stroke-dasharray: none; stroke-linecap: butt; stroke-linejoin: miter; stroke-miterlimit: 10; fill: rgb(173,161,138); fill-rule: nonzero; opacity: 1;" transform=" matrix(1 0 0 1 0 0) " stroke-linecap="round"/>
	<path d="M 70.35 35.392 c -1.647 -0.103 -3.293 -0.15 -4.94 -0.18 c -0.308 0.662 -0.646 1.306 -1.014 1.931 c 1.985 -0.027 3.97 -0.072 5.955 -0.196 c 2.55 -0.147 5.1 -0.364 7.65 -0.777 C 75.45 35.755 72.9 35.539 70.35 35.392 z" style="stroke: none; stroke-width: 1; stroke-dasharray: none; stroke-linecap: butt; stroke-linejoin: miter; stroke-miterlimit: 10; fill: rgb(173,161,138); fill-rule: nonzero; opacity: 1;" transform=" matrix(1 0 0 1 0 0) " stroke-linecap="round"/>
	<path d="M 22.559 27.29 c -0.794 0.03 -1.589 0.052 -2.383 0.102 c -2.55 0.147 -5.1 0.364 -7.65 0.777 c 2.55 0.414 5.1 0.63 7.65 0.777 c 0.856 0.054 1.713 0.079 2.569 0.11 C 22.659 28.475 22.599 27.885 22.559 27.29 z" style="stroke: none; stroke-width: 1; stroke-dasharray: none; stroke-linecap: butt; stroke-linejoin: miter; stroke-miterlimit: 10; fill: rgb(173,161,138); fill-rule: nonzero; opacity: 1;" transform=" matrix(1 0 0 1 0 0) " stroke-linecap="round"/>
	<path d="M 24.593 35.219 c -1.473 0.032 -2.945 0.08 -4.418 0.172 c -2.55 0.147 -5.1 0.364 -7.65 0.777 c 2.55 0.414 5.1 0.63 7.65 0.777 c 1.808 0.113 3.616 0.159 5.424 0.188 C 25.235 36.514 24.899 35.875 24.593 35.219 z" style="stroke: none; stroke-width: 1; stroke-dasharray: none; stroke-linecap: butt; stroke-linejoin: miter; stroke-miterlimit: 10; fill: rgb(173,161,138); fill-rule: nonzero; opacity: 1;" transform=" matrix(1 0 0 1 0 0) " stroke-linecap="round"/>
	<path d="M 70.35 43.392 c -2.55 -0.16 -5.1 -0.202 -7.65 -0.222 c -1.187 0.021 -2.334 0.016 -3.548 0.06 c -0.954 0.773 -1.973 1.467 -3.047 2.078 c 2.103 -0.299 4.311 -0.13 6.595 -0.139 c 2.55 -0.02 5.1 -0.062 7.65 -0.222 c 2.55 -0.147 5.1 -0.364 7.65 -0.777 C 75.45 43.755 72.9 43.539 70.35 43.392 z" style="stroke: none; stroke-width: 1; stroke-dasharray: none; stroke-linecap: butt; stroke-linejoin: miter; stroke-miterlimit: 10; fill: rgb(173,161,138); fill-rule: nonzero; opacity: 1;" transform=" matrix(1 0 0 1 0 0) " stroke-linecap="round"/>
	<path d="M 30.831 43.216 c -1.014 -0.025 -1.999 -0.029 -3.006 -0.047 c -2.55 0.02 -5.1 0.062 -7.65 0.222 c -2.55 0.147 -5.1 0.364 -7.65 0.777 c 2.55 0.414 5.1 0.63 7.65 0.777 c 2.55 0.16 5.1 0.202 7.65 0.222 c 2.048 0.008 4.034 -0.124 5.939 0.064 C 32.732 44.636 31.751 43.963 30.831 43.216 z" style="stroke: none; stroke-width: 1; stroke-dasharray: none; stroke-linecap: butt; stroke-linejoin: miter; stroke-miterlimit: 10; fill: rgb(173,161,138); fill-rule: nonzero; opacity: 1;" transform=" matrix(1 0 0 1 0 0) " stroke-linecap="round"/>
	<path d="M 44.989 17.065 c 4.747 0.007 8.593 3.857 8.593 8.605 s -3.846 8.598 -8.593 8.605 V 17.065 z" style="stroke: none; stroke-width: 1; stroke-dasharray: none; stroke-linecap: butt; stroke-linejoin: miter; stroke-miterlimit: 10; fill: rgb(232,227,217); fill-rule: nonzero; opacity: 1;" transform=" matrix(1 0 0 1 0 0) " stroke-linecap="round"/>
	<path d="M 44.989 17.065 c -4.747 0.007 -8.593 3.857 -8.593 8.605 s 3.846 8.598 8.593 8.605 V 17.065 z" style="stroke: none; stroke-width: 1; stroke-dasharray: none; stroke-linecap: butt; stroke-linejoin: miter; stroke-miterlimit: 10; fill: rgb(244,239,223); fill-rule: nonzero; opacity: 1;" transform=" matrix(1 0 0 1 0 0) " stroke-linecap="round"/>
</g>
</svg>