<svg xmlns="http://www.w3.org/2000/svg" xmlns:xlink="http://www.w3.org/1999/xlink" version="1.1" width="256" height="256" viewBox="0 0 256 256" xml:space="preserve">
<g style="stroke: none; stroke-width: 0; stroke-dasharray: none; stroke-linecap: butt; stroke-linejoin: miter; stroke-miterlimit: 10; fill: none; fill-rule: nonzero; opacity: 1;" transform="translate(1.4065934065934016 1.4065934065934016) scale(2.81 2.81)">
	<rect x="36.76" y="28.59" rx="0" ry="0" width="16.48" height="60.41" style="stroke: none; stroke-width: 1; stroke-dasharray: none; stroke-linecap: butt; stroke-linejoin: miter; stroke-miterlimit: 10; fill: rgb(216,175,63); fill-rule: nonzero; opacity: 1;" transform=" matrix(1 0 0 1 0 0) "/>
	<polygon points="53.24,89 85.15,69.44 85.15,9.03 53.24,28.59 " style="stroke: none; stroke-width: 1; stroke-dasharray: none; stroke-linecap: butt; stroke-linejoin: miter; stroke-miterlimit: 10; fill: rgb(216,175,63); fill-rule: nonzero; opacity: 1;" transform="  matrix(1 0 0 1 0 0) "/>
	<polygon points="36.76,89 4.85,69.44 4.85,9.03 36.76,28.59 " style="stroke: none; stroke-width: 1; stroke-dasharray: none; stroke-linecap: butt; stroke-linejoin: miter; stroke-miterlimit: 10; fill: rgb(255,202,69); fill-rule: nonzero; opacity: 1;" transform="  matrix(1 0 0 1 0 0) "/>
	<path d="M 45 28.587 L 45 28.587 C 39.413 16.671 28.973 9.589 15.355 5.672 l -8.512 4.573 l 29.919 18.343 H 45 z" style="stroke: none; stroke-width: 1; stroke-dasharray: none; stroke-linecap: butt; stroke-linejoin: miter; stroke-miterlimit: 10; fill: rgb(236,229,185); fill-rule: nonzero; opacity: 1;" transform=" matrix(1 0 0 1 0 0) " stroke-linecap="round"/>
	<path d="M 45 28.587 L 45 28.587 C 50.587 16.671 61.027 9.589 74.645 5.672 l 8.512 4.573 L 53.238 28.587 H 45 z" style="stroke: none; stroke-width: 1; stroke-dasharray: none; stroke-linecap: butt; stroke-linejoin: miter; stroke-miterlimit: 10; fill: rgb(236,229,185); fill-rule: nonzero; opacity: 1;" transform=" matrix(1 0 0 1 0 0) " stroke-linecap="round"/>
	<path d="M 45 28.587 C 45.582 18.852 37.578 4.671 25.922 1 v 8.701" style="stroke: none; stroke-width: 1; stroke-dasharray: none; stroke-linecap: butt; stroke-linejoin: miter; stroke-miterlimit: 10; fill: rgb(236,229,185); fill-rule: nonzero; opacity: 1;" transform=" matrix(1 0 0 1 0 0) " stroke-linecap="round"/>
	<path d="M 53.238 90 H 36.762 c -0.552 0 -1 -0.447 -1 -1 V 28.587 c 0 -0.552 0.448 -1 1 -1 h 16.477 c 0.553 0 1 0.448 1 1 V 89 C 54.238 89.553 53.791 90 53.238 90 z M 37.762 88 h 14.477 V 29.587 H 37.762 V 88 z" style="stroke: none; stroke-width: 1; stroke-dasharray: none; stroke-linecap: butt; stroke-linejoin: miter; stroke-miterlimit: 10; fill: rgb(0,0,0); fill-rule: nonzero; opacity: 1;" transform=" matrix(1 0 0 1 0 0) " stroke-linecap="round"/>
	<path d="M 53.238 90 c -0.168 0 -0.337 -0.042 -0.488 -0.128 c -0.316 -0.177 -0.512 -0.51 -0.512 -0.872 V 28.587 c 0 -0.348 0.181 -0.671 0.478 -0.853 L 84.624 8.172 c 0.309 -0.189 0.696 -0.197 1.011 -0.02 c 0.316 0.177 0.512 0.511 0.512 0.873 v 60.413 c 0 0.348 -0.181 0.671 -0.478 0.853 L 53.761 89.853 C 53.601 89.951 53.42 90 53.238 90 z M 54.238 29.147 v 58.066 l 29.908 -18.336 V 10.811 L 54.238 29.147 z" style="stroke: none; stroke-width: 1; stroke-dasharray: none; stroke-linecap: butt; stroke-linejoin: miter; stroke-miterlimit: 10; fill: rgb(0,0,0); fill-rule: nonzero; opacity: 1;" transform=" matrix(1 0 0 1 0 0) " stroke-linecap="round"/>
	<path d="M 36.762 90 c -0.181 0 -0.362 -0.049 -0.522 -0.147 L 4.331 70.29 c -0.297 -0.182 -0.478 -0.505 -0.478 -0.853 V 9.024 c 0 -0.362 0.196 -0.696 0.512 -0.873 c 0.315 -0.177 0.703 -0.17 1.011 0.02 l 31.908 19.563 c 0.297 0.182 0.478 0.505 0.478 0.853 V 89 c 0 0.362 -0.196 0.695 -0.511 0.872 C 37.098 89.958 36.93 90 36.762 90 z M 5.854 68.878 l 29.908 18.336 V 29.147 L 5.854 10.811 V 68.878 z" style="stroke: none; stroke-width: 1; stroke-dasharray: none; stroke-linecap: butt; stroke-linejoin: miter; stroke-miterlimit: 10; fill: rgb(0,0,0); fill-rule: nonzero; opacity: 1;" transform=" matrix(1 0 0 1 0 0) " stroke-linecap="round"/>
	<path d="M 45 29.587 h -8.238 c -0.185 0 -0.365 -0.051 -0.522 -0.147 L 6.321 11.097 c -0.306 -0.187 -0.487 -0.523 -0.477 -0.881 S 6.055 9.533 6.37 9.364 l 8.512 -4.573 c 0.229 -0.124 0.498 -0.154 0.75 -0.08 c 14.995 4.313 24.898 11.985 30.274 23.452 c 0.146 0.31 0.122 0.672 -0.062 0.961 C 45.661 29.413 45.342 29.587 45 29.587 z M 37.044 27.587 h 6.347 C 38.18 17.553 29.026 10.725 15.468 6.746 L 8.85 10.302 L 37.044 27.587 z" style="stroke: none; stroke-width: 1; stroke-dasharray: none; stroke-linecap: butt; stroke-linejoin: miter; stroke-miterlimit: 10; fill: rgb(0,0,0); fill-rule: nonzero; opacity: 1;" transform=" matrix(1 0 0 1 0 0) " stroke-linecap="round"/>
	<path d="M 53.238 29.587 H 45 c -0.342 0 -0.661 -0.175 -0.844 -0.463 c -0.184 -0.289 -0.207 -0.651 -0.062 -0.961 C 49.471 16.696 59.373 9.024 74.368 4.711 c 0.251 -0.073 0.519 -0.044 0.75 0.08 l 8.512 4.573 c 0.315 0.169 0.516 0.495 0.526 0.853 c 0.01 0.358 -0.172 0.694 -0.478 0.881 L 53.761 29.44 C 53.604 29.536 53.423 29.587 53.238 29.587 z M 46.608 27.587 h 6.348 l 28.193 -17.286 l -6.618 -3.556 C 60.974 10.725 51.82 17.553 46.608 27.587 z" style="stroke: none; stroke-width: 1; stroke-dasharray: none; stroke-linecap: butt; stroke-linejoin: miter; stroke-miterlimit: 10; fill: rgb(0,0,0); fill-rule: nonzero; opacity: 1;" transform=" matrix(1 0 0 1 0 0) " stroke-linecap="round"/>
	<path d="M 53.238 40.128 H 36.762 c -0.552 0 -1 -0.448 -1 -1 V 28.587 c 0 -0.552 0.448 -1 1 -1 h 16.477 c 0.553 0 1 0.448 1 1 v 10.541 C 54.238 39.68 53.791 40.128 53.238 40.128 z M 37.762 38.128 h 14.477 v -8.541 H 37.762 V 38.128 z" style="stroke: none; stroke-width: 1; stroke-dasharray: none; stroke-linecap: butt; stroke-linejoin: miter; stroke-miterlimit: 10; fill: rgb(0,0,0); fill-rule: nonzero; opacity: 1;" transform=" matrix(1 0 0 1 0 0) " stroke-linecap="round"/>
	<path d="M 53.238 90 H 36.762 c -0.552 0 -1 -0.447 -1 -1 V 78.459 c 0 -0.553 0.448 -1 1 -1 h 16.477 c 0.553 0 1 0.447 1 1 V 89 C 54.238 89.553 53.791 90 53.238 90 z M 37.762 88 h 14.477 v -8.541 H 37.762 V 88 z" style="stroke: none; stroke-width: 1; stroke-dasharray: none; stroke-linecap: butt; stroke-linejoin: miter; stroke-miterlimit: 10; fill: rgb(0,0,0); fill-rule: nonzero; opacity: 1;" transform=" matrix(1 0 0 1 0 0) " stroke-linecap="round"/>
	<path d="M 45 71.67 c -0.552 0 -1 -0.447 -1 -1 V 45.819 c 0 -0.552 0.448 -1 1 -1 s 1 0.448 1 1 V 70.67 C 46 71.223 45.552 71.67 45 71.67 z" style="stroke: none; stroke-width: 1; stroke-dasharray: none; stroke-linecap: butt; stroke-linejoin: miter; stroke-miterlimit: 10; fill: rgb(0,0,0); fill-rule: nonzero; opacity: 1;" transform=" matrix(1 0 0 1 0 0) " stroke-linecap="round"/>
	<path d="M 45.001 29.587 c -0.02 0 -0.041 0 -0.061 -0.002 c -0.551 -0.033 -0.972 -0.506 -0.938 -1.058 c 0.542 -9.059 -6.727 -22.018 -17.08 -26.112 v 7.285 c 0 0.552 -0.448 1 -1 1 s -1 -0.448 -1 -1 V 1 c 0 -0.318 0.152 -0.618 0.409 -0.806 c 0.257 -0.188 0.589 -0.243 0.892 -0.147 c 12.071 3.802 20.396 18.235 19.776 28.601 C 45.966 29.178 45.526 29.587 45.001 29.587 z" style="stroke: none; stroke-width: 1; stroke-dasharray: none; stroke-linecap: butt; stroke-linejoin: miter; stroke-miterlimit: 10; fill: rgb(0,0,0); fill-rule: nonzero; opacity: 1;" transform=" matrix(1 0 0 1 0 0) " stroke-linecap="round"/>
	<polygon points="60.2,37.94 60.2,49.45 78.8,38.05 78.8,26.54 " style="stroke: none; stroke-width: 1; stroke-dasharray: none; stroke-linecap: butt; stroke-linejoin: miter; stroke-miterlimit: 10; fill: rgb(229,154,65); fill-rule: nonzero; opacity: 1;" transform="  matrix(1 0 0 1 0 0) "/>
	<polygon points="29.8,37.94 29.8,49.45 11.2,38.05 11.2,26.54 " style="stroke: none; stroke-width: 1; stroke-dasharray: none; stroke-linecap: butt; stroke-linejoin: miter; stroke-miterlimit: 10; fill: rgb(229,154,65); fill-rule: nonzero; opacity: 1;" transform="  matrix(1 0 0 1 0 0) "/>
	<path d="M 60.201 50.45 c -0.168 0 -0.337 -0.042 -0.488 -0.128 c -0.316 -0.177 -0.512 -0.51 -0.512 -0.872 V 37.944 c 0 -0.348 0.181 -0.671 0.478 -0.853 l 18.598 -11.402 c 0.309 -0.188 0.695 -0.196 1.011 -0.02 c 0.316 0.177 0.512 0.511 0.512 0.873 v 11.506 c 0 0.348 -0.181 0.671 -0.478 0.853 L 60.724 50.303 C 60.563 50.401 60.383 50.45 60.201 50.45 z M 61.201 38.504 v 9.16 l 16.598 -10.176 v -9.16 L 61.201 38.504 z" style="stroke: none; stroke-width: 1; stroke-dasharray: none; stroke-linecap: butt; stroke-linejoin: miter; stroke-miterlimit: 10; fill: rgb(0,0,0); fill-rule: nonzero; opacity: 1;" transform=" matrix(1 0 0 1 0 0) " stroke-linecap="round"/>
	<path d="M 29.799 50.45 c -0.181 0 -0.363 -0.049 -0.522 -0.147 L 10.679 38.9 c -0.297 -0.182 -0.478 -0.505 -0.478 -0.853 V 26.542 c 0 -0.362 0.196 -0.696 0.512 -0.873 c 0.315 -0.177 0.703 -0.17 1.011 0.02 l 18.598 11.402 c 0.297 0.182 0.478 0.505 0.478 0.853 V 49.45 c 0 0.362 -0.196 0.695 -0.512 0.872 C 30.135 50.408 29.967 50.45 29.799 50.45 z M 12.201 37.488 l 16.598 10.176 v -9.16 L 12.201 28.328 V 37.488 z" style="stroke: none; stroke-width: 1; stroke-dasharray: none; stroke-linecap: butt; stroke-linejoin: miter; stroke-miterlimit: 10; fill: rgb(0,0,0); fill-rule: nonzero; opacity: 1;" transform=" matrix(1 0 0 1 0 0) " stroke-linecap="round"/>
</g>
</svg>