<svg width="254" height="228" viewBox="0 0 254 228" fill="none" xmlns="http://www.w3.org/2000/svg">
<path d="M253.253 4.82857C253.307 4.42674 253.309 4.02772 253.248 3.63432C253.239 3.57531 253.245 3.51911 253.234 3.4601C253.141 3.00207 252.958 2.56933 252.719 2.16188C252.694 2.11692 252.691 2.06915 252.666 2.02419C252.624 1.95675 252.556 1.92303 252.511 1.8584C252.416 1.72352 252.343 1.57178 252.228 1.44814C252.084 1.29078 251.91 1.17557 251.75 1.0435C251.663 0.97325 251.587 0.89176 251.497 0.82994C251.12 0.56861 250.71 0.369099 250.272 0.242649C250.193 0.220169 250.114 0.21736 250.036 0.2005C249.665 0.1162 249.285 0.0852898 248.9 0.10496C248.771 0.11058 248.65 0.12182 248.521 0.13868C248.412 0.15554 248.299 0.144299 248.19 0.166779L3.71957 54.8381C2.00266 55.2231 0.704444 56.6337 0.462784 58.3759C0.223934 60.1181 1.09222 61.8294 2.64053 62.6612L68.7402 98.2386L89.329 163.88C89.3515 163.95 89.3993 164.001 89.4246 164.068C89.4836 164.226 89.5707 164.366 89.6494 164.518C89.8152 164.838 90.0062 165.131 90.2423 165.395C90.3041 165.465 90.3266 165.555 90.394 165.62C90.4558 165.679 90.5345 165.698 90.5992 165.754C90.8773 165.996 91.1808 166.19 91.5124 166.353C91.6445 166.418 91.7597 166.502 91.8946 166.55C92.3554 166.721 92.8387 166.831 93.3473 166.831C93.3782 166.831 93.4092 166.831 93.4401 166.831C93.9431 166.819 94.4208 166.707 94.8704 166.53C94.9856 166.485 95.0811 166.406 95.1907 166.353C95.5476 166.176 95.8763 165.962 96.1714 165.693C96.2276 165.642 96.3006 165.625 96.354 165.569L130.099 131.262L195.235 166.322C195.856 166.656 196.545 166.828 197.233 166.828C197.761 166.828 198.295 166.73 198.798 166.527C199.956 166.066 200.85 165.111 201.24 163.925L253.11 5.5957C253.149 5.47206 253.152 5.3428 253.18 5.21635C253.211 5.08709 253.236 4.96064 253.253 4.82857ZM217.999 15.5571L72.2864 90.5813L16.5866 60.5986L217.999 15.5571ZM209.246 29.5481L103.851 110.395C103.843 110.4 103.837 110.412 103.831 110.417C103.517 110.662 103.244 110.962 103.005 111.299C102.955 111.37 102.907 111.44 102.862 111.513C102.814 111.592 102.752 111.659 102.707 111.741C102.556 112.022 102.446 112.314 102.365 112.609C102.362 112.623 102.351 112.634 102.348 112.648L93.0242 147.512L77.3275 97.4687L209.246 29.5481ZM101.544 148.276L109.111 119.974L122.366 127.109L101.544 148.276ZM194.794 156.524L114.153 113.118L240.855 15.9253L194.794 156.524Z" fill="#6CABC6" fill-opacity="0.482353"/>
<path d="M36.6555 227.611C35.5877 227.611 34.5199 227.206 33.6994 226.4C32.0387 224.767 32.0162 222.101 33.6488 220.44L73.8093 179.616C75.442 177.953 78.1114 177.936 79.7693 179.566C81.4301 181.198 81.4525 183.865 79.8199 185.526L39.6622 226.352C38.8361 227.192 37.7458 227.611 36.6555 227.611Z" fill="#6CABC6" fill-opacity="0.482353"/>
<path d="M102.778 211.063C101.71 211.063 100.642 210.658 99.8216 209.852C98.1609 208.219 98.1384 205.552 99.771 203.892L139.929 163.071C141.564 161.41 144.231 161.391 145.889 163.02C147.549 164.653 147.572 167.32 145.939 168.98L105.784 209.804C104.958 210.641 103.868 211.063 102.778 211.063Z" fill="#6CABC6" fill-opacity="0.482353"/>
<path d="M24.1089 176.32C23.0411 176.32 21.9733 175.915 21.1528 175.109C19.4921 173.476 19.4696 170.81 21.1022 169.149L50.4526 139.312C52.0853 137.652 54.7548 137.632 56.4127 139.262C58.0734 140.894 58.0958 143.561 56.4632 145.222L27.1156 175.058C26.2895 175.899 25.1992 176.32 24.1089 176.32Z" fill="#6CABC6" fill-opacity="0.482353"/>
</svg>
