<svg xmlns="http://www.w3.org/2000/svg" xmlns:xlink="http://www.w3.org/1999/xlink" version="1.1" width="256" height="256" viewBox="0 0 256 256" xml:space="preserve">
<g style="stroke: none; stroke-width: 0; stroke-dasharray: none; stroke-linecap: butt; stroke-linejoin: miter; stroke-miterlimit: 10; fill: none; fill-rule: nonzero; opacity: 1;" transform="translate(1.4065934065934016 1.4065934065934016) scale(2.81 2.81)">
	<path d="M 78.939 62.723 c 3.625 -1.678 6.145 -5.337 6.145 -9.594 c 0 -5.841 -4.735 -10.576 -10.577 -10.576 S 63.93 47.288 63.93 53.129 c 0 4.259 2.523 7.92 6.15 9.596 c -3.195 0.21 -6.049 1.669 -8.055 3.914 l 1.125 22.02 H 90 V 74.532 C 90 68.254 85.114 63.13 78.939 62.723 z" style="stroke: none; stroke-width: 1; stroke-dasharray: none; stroke-linecap: butt; stroke-linejoin: miter; stroke-miterlimit: 10; fill: rgb(160,200,255); fill-rule: nonzero; opacity: 1;" transform=" matrix(1 0 0 1 0 0) " stroke-linecap="round"/>
	<path d="M 19.92 62.725 c 3.628 -1.677 6.15 -5.338 6.15 -9.596 c 0 -5.841 -4.735 -10.576 -10.576 -10.576 S 4.917 47.288 4.917 53.129 c 0 4.256 2.52 7.916 6.145 9.594 C 4.886 63.13 0 68.254 0 74.532 v 14.127 h 26.849 l 1.126 -22.019 C 25.969 64.394 23.115 62.935 19.92 62.725 z" style="stroke: none; stroke-width: 1; stroke-dasharray: none; stroke-linecap: butt; stroke-linejoin: miter; stroke-miterlimit: 10; fill: rgb(255,123,121); fill-rule: nonzero; opacity: 1;" transform=" matrix(1 0 0 1 0 0) " stroke-linecap="round"/>
	<path d="M 77.796 1.341 H 13.45 c -4.025 0 -7.288 3.263 -7.288 7.288 v 4.95 c 0 4.025 3.263 7.288 7.288 7.288 h 23.803 l 5.489 5.489 c 1.247 1.247 3.268 1.247 4.515 0 l 5.489 -5.489 h 25.049 c 4.025 0 7.288 -3.263 7.288 -7.288 v -4.95 C 85.083 4.603 81.821 1.341 77.796 1.341 z" style="stroke: none; stroke-width: 1; stroke-dasharray: none; stroke-linecap: butt; stroke-linejoin: miter; stroke-miterlimit: 10; fill: rgb(255,205,105); fill-rule: nonzero; opacity: 1;" transform=" matrix(1 0 0 1 0 0) " stroke-linecap="round"/>
	<circle cx="44.999" cy="10.849" r="3.469" style="stroke: none; stroke-width: 1; stroke-dasharray: none; stroke-linecap: butt; stroke-linejoin: miter; stroke-miterlimit: 10; fill: rgb(255,255,255); fill-rule: nonzero; opacity: 1;" transform="  matrix(1 0 0 1 0 0) "/>
	<circle cx="59.049" cy="10.849" r="3.469" style="stroke: none; stroke-width: 1; stroke-dasharray: none; stroke-linecap: butt; stroke-linejoin: miter; stroke-miterlimit: 10; fill: rgb(255,255,255); fill-rule: nonzero; opacity: 1;" transform="  matrix(1 0 0 1 0 0) "/>
	<circle cx="30.959" cy="10.849" r="3.469" style="stroke: none; stroke-width: 1; stroke-dasharray: none; stroke-linecap: butt; stroke-linejoin: miter; stroke-miterlimit: 10; fill: rgb(255,255,255); fill-rule: nonzero; opacity: 1;" transform="  matrix(1 0 0 1 0 0) "/>
	<path d="M 49.863 58.257 c 4.426 -1.891 7.528 -6.281 7.528 -11.398 c 0 -6.843 -5.547 -12.391 -12.391 -12.391 s -12.391 5.547 -12.391 12.391 c 0 5.117 3.103 9.507 7.528 11.398 c -7.389 0.313 -13.288 6.385 -13.288 13.852 v 16.551 h 36.301 V 72.109 C 63.151 64.643 57.252 58.57 49.863 58.257 z" style="stroke: none; stroke-width: 1; stroke-dasharray: none; stroke-linecap: butt; stroke-linejoin: miter; stroke-miterlimit: 10; fill: rgb(213,234,122); fill-rule: nonzero; opacity: 1;" transform=" matrix(1 0 0 1 0 0) " stroke-linecap="round"/>
	<path d="M 79.882 62.036 c 3.184 -2.01 5.31 -5.552 5.31 -9.588 c 0 -6.254 -5.088 -11.341 -11.341 -11.341 c -6.254 0 -11.342 5.087 -11.342 11.341 c 0 4.04 2.13 7.584 5.32 9.594 c -2.185 0.437 -4.224 1.445 -5.899 2.932 c -2.115 -3.82 -5.896 -6.582 -10.355 -7.326 c 3.904 -2.274 6.541 -6.496 6.541 -11.33 c 0 -7.232 -5.884 -13.116 -13.115 -13.116 c -7.232 0 -13.115 5.884 -13.115 13.116 c 0 4.834 2.637 9.056 6.541 11.33 c -4.459 0.744 -8.241 3.505 -10.355 7.326 c -1.675 -1.488 -3.714 -2.496 -5.899 -2.932 c 3.189 -2.01 5.319 -5.553 5.319 -9.594 c 0 -6.254 -5.088 -11.341 -11.341 -11.341 c -6.254 0 -11.342 5.087 -11.342 11.341 c 0 4.036 2.126 7.578 5.31 9.588 C 4.356 63.187 0 68.281 0 74.376 v 14.813 h 26.253 h 1 h 35.494 h 1 H 90 V 74.376 C 90 68.281 85.644 63.187 79.882 62.036 z M 64.51 52.448 c 0 -5.15 4.19 -9.341 9.342 -9.341 c 5.15 0 9.341 4.191 9.341 9.341 c 0 5.151 -4.19 9.342 -9.341 9.342 C 68.7 61.79 64.51 57.6 64.51 52.448 z M 33.885 46.318 c 0 -6.129 4.986 -11.116 11.115 -11.116 s 11.115 4.986 11.115 11.116 c 0 6.129 -4.986 11.115 -11.115 11.115 S 33.885 52.447 33.885 46.318 z M 6.807 52.448 c 0 -5.15 4.191 -9.341 9.342 -9.341 s 9.341 4.191 9.341 9.341 c 0 5.151 -4.19 9.342 -9.341 9.342 S 6.807 57.6 6.807 52.448 z M 2 87.189 V 74.376 C 2 68.539 6.749 63.79 12.586 63.79 h 7.126 c 2.813 0 5.501 1.137 7.48 3.116 c -0.597 1.59 -0.939 3.304 -0.939 5.1 v 15.183 H 2 z M 28.253 72.007 c 0 -1.744 0.358 -3.405 1.003 -4.916 c 0.001 -0.003 0.003 -0.005 0.004 -0.008 c 1.92 -4.492 6.381 -7.649 11.567 -7.649 h 8.348 c 6.933 0 12.573 5.641 12.573 12.573 v 15.183 H 28.253 V 72.007 z M 88 87.189 H 63.747 V 72.007 c 0 -1.796 -0.342 -3.51 -0.939 -5.1 c 1.979 -1.981 4.666 -3.117 7.48 -3.117 h 7.126 C 83.251 63.79 88 68.539 88 74.376 V 87.189 z" style="stroke: none; stroke-width: 1; stroke-dasharray: none; stroke-linecap: butt; stroke-linejoin: miter; stroke-miterlimit: 10; fill: rgb(0,0,0); fill-rule: nonzero; opacity: 1;" transform=" matrix(1 0 0 1 0 0) " stroke-linecap="round"/>
	<path d="M 45 28.184 c -1.101 0 -2.136 -0.429 -2.915 -1.208 l -5.075 -5.075 H 14.151 c -4.48 0 -8.125 -3.645 -8.125 -8.125 v -4.84 c 0 -4.48 3.645 -8.125 8.125 -8.125 h 62.916 c 4.48 0 8.125 3.645 8.125 8.125 v 4.84 c 0 4.48 -3.645 8.125 -8.125 8.125 H 52.989 l -5.075 5.075 C 47.136 27.755 46.101 28.184 45 28.184 z M 14.151 2.811 c -3.377 0 -6.125 2.748 -6.125 6.125 v 4.84 c 0 3.377 2.748 6.125 6.125 6.125 h 23.688 l 5.661 5.661 c 0.802 0.801 2.2 0.802 3 0 l 5.661 -5.661 h 24.906 c 3.377 0 6.125 -2.748 6.125 -6.125 v -4.84 c 0 -3.377 -2.748 -6.125 -6.125 -6.125 H 14.151 z" style="stroke: none; stroke-width: 1; stroke-dasharray: none; stroke-linecap: butt; stroke-linejoin: miter; stroke-miterlimit: 10; fill: rgb(0,0,0); fill-rule: nonzero; opacity: 1;" transform=" matrix(1 0 0 1 0 0) " stroke-linecap="round"/>
	<path d="M 45 15.498 c -2.422 0 -4.392 -1.971 -4.392 -4.393 S 42.578 6.713 45 6.713 s 4.393 1.97 4.393 4.392 S 47.422 15.498 45 15.498 z M 45 8.713 c -1.319 0 -2.392 1.073 -2.392 2.392 c 0 1.319 1.073 2.393 2.392 2.393 c 1.319 0 2.393 -1.073 2.393 -2.393 C 47.393 9.786 46.319 8.713 45 8.713 z" style="stroke: none; stroke-width: 1; stroke-dasharray: none; stroke-linecap: butt; stroke-linejoin: miter; stroke-miterlimit: 10; fill: rgb(0,0,0); fill-rule: nonzero; opacity: 1;" transform=" matrix(1 0 0 1 0 0) " stroke-linecap="round"/>
	<path d="M 58.732 15.498 c -2.422 0 -4.392 -1.971 -4.392 -4.393 s 1.97 -4.392 4.392 -4.392 s 4.393 1.97 4.393 4.392 S 61.154 15.498 58.732 15.498 z M 58.732 8.713 c -1.318 0 -2.392 1.073 -2.392 2.392 c 0 1.319 1.073 2.393 2.392 2.393 c 1.319 0 2.393 -1.073 2.393 -2.393 C 61.125 9.786 60.052 8.713 58.732 8.713 z" style="stroke: none; stroke-width: 1; stroke-dasharray: none; stroke-linecap: butt; stroke-linejoin: miter; stroke-miterlimit: 10; fill: rgb(0,0,0); fill-rule: nonzero; opacity: 1;" transform=" matrix(1 0 0 1 0 0) " stroke-linecap="round"/>
	<path d="M 31.267 15.498 c -2.422 0 -4.392 -1.971 -4.392 -4.393 s 1.97 -4.392 4.392 -4.392 s 4.392 1.97 4.392 4.392 S 33.689 15.498 31.267 15.498 z M 31.267 8.713 c -1.319 0 -2.392 1.073 -2.392 2.392 c 0 1.319 1.073 2.393 2.392 2.393 s 2.392 -1.073 2.392 -2.393 C 33.659 9.786 32.586 8.713 31.267 8.713 z" style="stroke: none; stroke-width: 1; stroke-dasharray: none; stroke-linecap: butt; stroke-linejoin: miter; stroke-miterlimit: 10; fill: rgb(0,0,0); fill-rule: nonzero; opacity: 1;" transform=" matrix(1 0 0 1 0 0) " stroke-linecap="round"/>
</g>
</svg>