<svg width="256" height="256" viewBox="0 0 256 256" fill="none" xmlns="http://www.w3.org/2000/svg">
<path d="M18.2666 254.307C13.9504 254.307 9.63708 252.66 6.34376 249.367C-0.240074 242.783 -0.240074 232.108 6.34376 225.527L225.524 6.34656C232.105 -0.237266 242.786 -0.237266 249.364 6.34656C255.95 12.9304 255.95 23.6056 249.364 30.1894L30.1838 249.369C26.8961 252.66 22.5827 254.307 18.2666 254.307Z" fill="#6CABC6" fill-opacity="0.482353"/>
<path d="M237.447 254.307C233.133 254.307 228.817 252.66 225.527 249.367L6.34656 30.1866C-0.237266 23.6028 -0.237266 12.9276 6.34656 6.34376C12.9304 -0.240074 23.6084 -0.240074 30.1894 6.34376L249.369 225.524C255.956 232.108 255.956 242.783 249.369 249.364C246.076 252.66 241.76 254.307 237.447 254.307Z" fill="#6CABC6" fill-opacity="0.482353"/>
</svg>
