<svg xmlns="http://www.w3.org/2000/svg" xmlns:xlink="http://www.w3.org/1999/xlink" version="1.1" width="256" height="256" viewBox="0 0 256 256" xml:space="preserve">
<g style="stroke: none; stroke-width: 0; stroke-dasharray: none; stroke-linecap: butt; stroke-linejoin: miter; stroke-miterlimit: 10; fill: none; fill-rule: nonzero; opacity: 1;" transform="translate(1.4065934065934016 1.4065934065934016) scale(2.81 2.81)">
	<path d="M 45 86.17 c -0.227 0 -0.454 -0.052 -0.664 -0.156 C 12.442 70.067 0.531 47.129 0.018 30.981 c -0.337 -10.615 4.02 -19.605 11.654 -24.048 C 20.528 1.778 32.336 3.079 45 10.584 c 12.662 -7.505 24.471 -8.805 33.328 -3.65 c 7.634 4.443 11.991 13.433 11.654 24.048 c -0.513 16.148 -12.424 39.086 -44.318 55.033 C 45.454 86.118 45.227 86.17 45 86.17 z" style="stroke: none; stroke-width: 1; stroke-dasharray: none; stroke-linecap: butt; stroke-linejoin: miter; stroke-miterlimit: 10; fill: rgb(215,90,74); fill-rule: nonzero; opacity: 1;" transform=" matrix(1 0 0 1 0 0) " stroke-linecap="round"/>
	<path d="M 11.556 39.147 c -0.634 0 -1.221 -0.41 -1.417 -1.048 c -2.233 -7.258 -0.825 -15.183 3.587 -20.188 c 3.152 -3.577 7.496 -5.188 11.923 -4.415 c 0.807 0.141 1.347 0.909 1.206 1.716 c -0.141 0.807 -0.914 1.345 -1.716 1.206 c -3.431 -0.599 -6.696 0.629 -9.187 3.455 c -3.745 4.248 -4.914 11.06 -2.977 17.354 c 0.241 0.783 -0.198 1.613 -0.982 1.854 C 11.847 39.126 11.7 39.147 11.556 39.147 z" style="stroke: none; stroke-width: 1; stroke-dasharray: none; stroke-linecap: butt; stroke-linejoin: miter; stroke-miterlimit: 10; fill: rgb(233,125,111); fill-rule: nonzero; opacity: 1;" transform=" matrix(1 0 0 1 0 0) " stroke-linecap="round"/>
</g>
</svg>