<?xml version="1.0" standalone="no"?>
<!DOCTYPE svg PUBLIC "-//W3C//DTD SVG 20010904//EN"
 "http://www.w3.org/TR/2001/REC-SVG-20010904/DTD/svg10.dtd">
<svg version="1.0" xmlns="http://www.w3.org/2000/svg"
 width="750.000000pt" height="750.000000pt" viewBox="0 0 750.000000 750.000000"
 preserveAspectRatio="xMidYMid meet">

<g transform="translate(0.000000,750.000000) scale(0.100000,-0.100000)"
fill="#000000" stroke="none">
<path d="M0 3750 l0 -3750 3750 0 3750 0 0 3750 0 3750 -3750 0 -3750 0 0
-3750z m4098 2486 c275 -41 509 -114 757 -236 393 -193 731 -487 973 -847 79
-117 126 -203 113 -203 -6 0 -11 -4 -11 -10 0 -5 8 -10 18 -10 14 0 29 -22 55
-77 19 -43 37 -85 39 -93 2 -8 6 -17 9 -20 11 -9 77 -194 108 -301 55 -191 84
-383 96 -624 5 -102 11 -139 27 -172 29 -58 85 -110 144 -132 27 -11 49 -25
49 -32 0 -12 -150 -14 -885 -17 -802 -2 -889 -1 -929 14 -36 14 -45 14 -52 3
-7 -11 -78 -14 -389 -16 -331 -2 -380 -1 -380 12 0 8 -5 15 -11 15 -6 0 -9 -7
-5 -15 5 -14 -149 -15 -1397 -13 -1202 3 -1402 5 -1402 17 0 8 19 21 41 28 59
20 119 75 147 136 22 45 26 72 32 192 18 401 101 722 276 1065 147 289 367
565 624 780 135 113 407 291 422 276 4 -3 13 3 21 15 11 16 20 19 43 14 22 -5
29 -3 29 9 0 19 29 35 172 92 109 44 148 53 148 34 0 -5 6 -7 14 -4 8 3 12 12
10 19 -4 9 9 17 38 24 24 5 73 18 110 27 65 17 68 17 88 -1 23 -20 39 -13 21
9 -10 11 -8 15 6 20 18 5 206 32 278 40 84 9 454 -4 553 -18z m-323 -2847 c5
-7 11 -7 19 0 18 15 2055 15 2073 0 9 -8 13 -8 13 0 0 7 71 11 240 10 238 0
240 0 267 -24 27 -22 28 -28 27 -107 -2 -187 -168 -862 -226 -920 -19 -19 -28
-20 -132 -14 -147 9 -166 13 -166 37 0 10 -4 19 -10 19 -5 0 -10 -9 -10 -21 0
-19 -4 -20 -97 -14 -54 3 -114 9 -133 12 -19 3 -43 5 -52 4 -9 -1 -29 6 -44
15 -23 16 -28 16 -38 3 -10 -13 -38 -13 -226 -3 -645 36 -1791 51 -2365 31
-423 -14 -1207 -57 -1342 -73 -36 -4 -53 -3 -53 5 0 14 -27 14 -32 0 -2 -7
-37 -14 -81 -17 -65 -4 -81 -2 -97 13 -38 34 -154 453 -204 735 -37 212 -37
245 0 289 l26 31 1318 0 c901 0 1321 -3 1325 -11z m1225 -1043 c179 -8 361
-18 405 -21 44 -3 215 -14 380 -26 337 -22 380 -28 380 -49 0 -12 -22 -16
-100 -22 -106 -7 -217 -35 -345 -88 -68 -28 -88 -43 -205 -159 -152 -151 -305
-277 -316 -260 -4 7 -15 9 -24 5 -13 -5 -15 -9 -6 -20 9 -11 -7 -25 -86 -73
-205 -125 -380 -210 -397 -193 -13 13 -56 13 -56 0 0 -5 12 -10 28 -10 l27 -1
-31 -13 c-59 -26 -74 -28 -74 -12 0 9 -5 16 -11 16 -6 0 -8 -8 -5 -18 5 -16
-6 -23 -81 -45 -229 -69 -407 -97 -673 -104 -422 -11 -796 70 -1165 252 -191
94 -430 247 -355 228 11 -3 20 0 20 6 0 6 7 11 15 11 8 0 15 5 15 10 0 12 2
12 -38 1 -17 -5 -32 -6 -32 -1 0 4 -9 6 -20 3 -27 -7 -133 78 -280 226 -70 70
-132 123 -158 135 -23 10 -39 23 -35 29 3 6 1 7 -4 4 -6 -4 -43 4 -83 18 -103
35 -208 55 -290 55 -54 0 -70 3 -70 14 0 8 5 18 11 22 31 19 1064 81 1639 98
301 9 1721 -4 2020 -18z"/>
<path d="M3435 6200 c-3 -5 1 -10 10 -10 9 0 13 5 10 10 -3 6 -8 10 -10 10 -2
0 -7 -4 -10 -10z"/>
<path d="M4107 6204 c-14 -14 -7 -35 11 -32 9 2 17 10 17 17 0 16 -18 25 -28
15z"/>
<path d="M3460 6160 c0 -5 5 -10 10 -10 6 0 10 5 10 10 0 6 -4 10 -10 10 -5 0
-10 -4 -10 -10z"/>
<path d="M3508 6143 c7 -3 16 -2 19 1 4 3 -2 6 -13 5 -11 0 -14 -3 -6 -6z"/>
<path d="M3860 6130 c8 -5 30 -10 49 -10 45 0 37 6 -19 14 -31 4 -40 3 -30 -4z"/>
<path d="M3545 6100 c5 -15 0 -20 -27 -24 -51 -9 -190 -28 -218 -31 -14 -1
-32 -5 -40 -8 -8 -3 -60 -17 -115 -30 -195 -48 -464 -166 -641 -282 -59 -38
-85 -50 -97 -44 -17 10 -32 -4 -22 -20 3 -5 -23 -31 -57 -58 -220 -168 -463
-442 -586 -658 -101 -180 -212 -435 -212 -488 1 -109 103 -186 208 -158 61 17
93 56 136 167 158 406 419 731 778 966 85 56 228 133 228 122 0 -3 7 1 15 9
20 20 206 93 303 119 228 60 336 74 587 72 309 -2 589 -70 870 -212 124 -62
318 -189 310 -202 -3 -6 2 -10 12 -10 20 0 175 -136 250 -220 180 -202 292
-382 390 -625 24 -60 51 -121 59 -133 21 -32 90 -62 145 -62 42 0 50 4 91 48
60 64 67 103 34 197 -36 105 -82 211 -126 293 -22 41 -40 80 -40 88 0 8 -4 14
-10 14 -18 0 -38 54 -29 77 7 20 4 24 -23 31 -21 5 -37 19 -52 47 -11 22 -24
41 -27 43 -16 7 -124 155 -124 170 0 9 -7 18 -17 20 -9 2 -58 44 -110 93 -328
317 -714 527 -1138 621 -58 13 -106 27 -107 33 -2 14 -23 19 -23 5 0 -8 -10
-10 -32 -6 -56 10 -126 15 -315 20 -175 4 -209 9 -199 25 3 4 -4 8 -15 8 -15
1 -19 -3 -14 -17z m470 -60 c261 -30 523 -109 773 -236 233 -118 387 -229 578
-419 160 -160 326 -367 298 -373 -21 -5 -12 -26 13 -30 51 -8 255 -431 255
-530 1 -53 -23 -90 -76 -116 -81 -40 -154 9 -201 134 -61 164 -146 322 -254
474 -31 43 -57 82 -57 87 -1 5 -2 14 -3 19 0 6 -6 10 -12 10 -6 0 -65 55 -132
122 -123 123 -276 245 -394 314 -34 20 -63 43 -63 51 0 9 -6 13 -15 10 -8 -4
-60 16 -117 42 -57 26 -139 61 -183 76 -44 16 -83 33 -86 38 -4 5 -11 7 -16 4
-16 -10 -80 12 -87 29 -4 11 -11 12 -23 6 -17 -9 -132 5 -143 17 -3 3 -43 7
-90 9 -47 2 -98 10 -114 18 -17 8 -33 10 -40 5 -6 -5 -76 -11 -156 -14 -80 -3
-198 -15 -263 -26 -66 -12 -123 -18 -129 -15 -5 3 -17 -1 -26 -9 -9 -8 -33
-18 -52 -22 -52 -11 -247 -83 -312 -116 -32 -16 -58 -26 -58 -23 0 4 -8 0 -17
-8 -32 -27 -128 -76 -140 -71 -7 3 -13 -1 -13 -9 0 -11 -60 -58 -74 -58 -2 0
-17 -11 -32 -24 -16 -13 -70 -58 -121 -100 -253 -210 -453 -490 -584 -818 -23
-57 -50 -113 -62 -125 -50 -55 -142 -51 -191 7 -36 43 -41 84 -17 153 52 148
174 396 212 429 10 9 19 23 19 30 0 19 118 188 131 188 5 0 9 6 9 13 0 17 161
194 245 269 233 208 493 366 770 466 127 46 312 94 371 96 23 0 40 4 38 7 -3
6 142 24 261 32 68 5 286 -3 380 -13z"/>
<path d="M3670 5928 l0 -98 30 0 c28 0 30 3 30 35 0 31 3 35 26 35 23 0 25 -3
22 -32 -3 -35 0 -38 32 -38 20 0 21 5 18 91 l-3 92 -37 4 c-40 4 -48 -6 -23
-27 11 -9 12 -16 5 -25 -5 -6 -7 -15 -3 -18 3 -4 -3 -7 -15 -7 -19 0 -22 6
-22 39 0 35 -3 39 -30 43 l-30 5 0 -99z"/>
<path d="M3517 6007 c-61 -9 -68 -13 -65 -31 2 -14 9 -20 22 -18 27 5 36 -15
36 -80 0 -57 0 -58 29 -58 l29 0 -5 75 c-6 74 -6 75 18 75 19 0 24 6 25 25 1
14 -3 24 -10 23 -6 0 -42 -6 -79 -11z"/>
<path d="M3909 6016 c-1 -2 -6 -40 -13 -117 l-7 -76 66 -6 c53 -5 70 -3 82 9
23 22 13 27 -59 33 -10 0 -18 8 -18 17 0 12 6 15 25 10 22 -6 25 -3 25 19 0
21 -5 25 -30 25 -20 0 -30 5 -30 15 0 12 10 15 48 13 42 -3 47 -1 50 20 3 19
-1 22 -30 22 -18 0 -50 4 -70 9 -21 5 -38 8 -39 7z"/>
<path d="M3370 5970 c0 -5 5 -10 10 -10 6 0 10 5 10 10 0 6 -4 10 -10 10 -5 0
-10 -4 -10 -10z"/>
<path d="M3260 5945 c7 -8 20 -15 28 -15 13 0 12 3 -4 15 -25 19 -40 19 -24 0z"/>
<path d="M3350 5945 c0 -8 7 -15 16 -15 14 0 14 3 4 15 -7 8 -14 15 -16 15 -2
0 -4 -7 -4 -15z"/>
<path d="M3480 5930 c0 -5 5 -10 11 -10 5 0 7 5 4 10 -3 6 -8 10 -11 10 -2 0
-4 -4 -4 -10z"/>
<path d="M3615 5920 c3 -5 11 -10 16 -10 6 0 7 5 4 10 -3 6 -11 10 -16 10 -6
0 -7 -4 -4 -10z"/>
<path d="M3225 5910 c-3 -5 -1 -10 4 -10 6 0 11 5 11 10 0 6 -2 10 -4 10 -3 0
-8 -4 -11 -10z"/>
<path d="M3290 5910 c0 -5 5 -10 10 -10 6 0 10 5 10 10 0 6 -4 10 -10 10 -5 0
-10 -4 -10 -10z"/>
<path d="M3380 5896 c0 -9 7 -16 16 -16 17 0 14 22 -4 28 -7 2 -12 -3 -12 -12z"/>
<path d="M3458 5873 c7 -3 16 -2 19 1 4 3 -2 6 -13 5 -11 0 -14 -3 -6 -6z"/>
<path d="M4070 5870 c0 -5 7 -10 15 -10 8 0 15 5 15 10 0 6 -7 10 -15 10 -8 0
-15 -4 -15 -10z"/>
<path d="M3022 5838 c-25 -25 -6 -68 30 -68 27 0 40 33 22 58 -17 25 -34 28
-52 10z"/>
<path d="M4425 5834 c-19 -20 -16 -43 8 -58 37 -23 77 35 41 61 -23 17 -29 16
-49 -3z"/>
<path d="M4630 5820 c0 -13 18 -22 24 -11 3 5 -1 11 -9 15 -8 3 -15 1 -15 -4z"/>
<path d="M3275 5810 c3 -5 8 -10 11 -10 2 0 4 5 4 10 0 6 -5 10 -11 10 -5 0
-7 -4 -4 -10z"/>
<path d="M3145 5780 c3 -5 8 -10 11 -10 2 0 4 5 4 10 0 6 -5 10 -11 10 -5 0
-7 -4 -4 -10z"/>
<path d="M4580 5760 c0 -5 5 -10 11 -10 5 0 7 5 4 10 -3 6 -8 10 -11 10 -2 0
-4 -4 -4 -10z"/>
<path d="M3020 5720 c0 -5 5 -10 10 -10 6 0 10 5 10 10 0 6 -4 10 -10 10 -5 0
-10 -4 -10 -10z"/>
<path d="M2722 5708 c-6 -6 -12 -19 -12 -27 1 -20 38 -66 47 -57 3 3 3 6 -2 6
-4 0 0 9 9 19 35 39 -5 96 -42 59z"/>
<path d="M4720 5705 c-14 -17 -5 -51 16 -59 22 -8 54 11 54 32 0 38 -46 56
-70 27z"/>
<path d="M4754 5586 c-7 -19 3 -36 22 -36 10 0 14 8 12 22 -4 26 -26 36 -34
14z"/>
<path d="M2440 5535 c-6 -8 -9 -23 -5 -36 5 -15 4 -19 -4 -14 -16 9 -61 -2
-61 -16 0 -6 9 -8 19 -4 11 3 22 1 26 -5 3 -5 24 -10 46 -10 32 0 39 3 37 17
-5 28 29 27 55 -1 29 -32 53 -36 37 -7 -14 26 -13 31 5 25 9 -4 15 0 15 9 0
11 -11 15 -45 15 -36 -1 -49 3 -61 20 -17 25 -46 28 -64 7z"/>
<path d="M4990 5520 c0 -44 37 -58 67 -24 12 13 27 24 33 24 6 0 9 4 5 10 -3
5 -12 7 -19 4 -8 -3 -17 -1 -21 5 -3 6 -19 11 -36 11 -26 0 -29 -3 -29 -30z"/>
<path d="M4895 5530 c3 -5 8 -10 11 -10 2 0 4 5 4 10 0 6 -5 10 -11 10 -5 0
-7 -4 -4 -10z"/>
<path d="M2390 5400 c0 -5 5 -10 11 -10 5 0 7 5 4 10 -3 6 -8 10 -11 10 -2 0
-4 -4 -4 -10z"/>
<path d="M2191 5316 c-19 -22 -4 -56 23 -56 32 0 53 26 39 48 -14 23 -47 27
-62 8z"/>
<path d="M5252 5318 c-18 -18 -15 -46 7 -58 28 -15 71 21 55 47 -14 22 -45 28
-62 11z"/>
<path d="M1962 5038 c-19 -19 -14 -46 9 -59 18 -9 25 -7 41 9 16 16 18 23 9
41 -13 23 -40 28 -59 9z"/>
<path d="M5480 5036 c-6 -8 -18 -12 -26 -9 -8 3 -14 0 -14 -6 0 -6 7 -11 15
-11 7 0 18 -6 22 -14 8 -14 25 -20 50 -17 18 2 26 40 13 56 -16 19 -44 19 -60
1z"/>
<path d="M5630 4966 c0 -2 7 -6 15 -10 8 -3 15 -1 15 4 0 6 -7 10 -15 10 -8 0
-15 -2 -15 -4z"/>
<path d="M1880 4805 c-10 -12 -9 -16 5 -21 19 -8 40 9 31 25 -10 15 -21 14
-36 -4z"/>
<path d="M5740 4770 c0 -5 5 -10 10 -10 6 0 10 5 10 10 0 6 -4 10 -10 10 -5 0
-10 -4 -10 -10z"/>
<path d="M1781 4746 c-19 -22 -4 -56 23 -56 32 0 53 26 39 48 -14 23 -47 27
-62 8z"/>
<path d="M5661 4746 c-19 -22 -4 -56 23 -56 32 0 53 26 39 48 -14 23 -47 27
-62 8z"/>
<path d="M5735 4690 c3 -5 10 -10 16 -10 5 0 9 5 9 10 0 6 -7 10 -16 10 -8 0
-12 -4 -9 -10z"/>
<path d="M5773 4620 c-2 -27 14 -34 26 -11 8 15 7 20 -5 25 -9 3 -17 6 -18 6
-1 0 -2 -9 -3 -20z"/>
<path d="M1600 4394 c0 -9 5 -14 12 -12 18 6 21 28 4 28 -9 0 -16 -7 -16 -16z"/>
<path d="M3998 6113 c12 -2 30 -2 40 0 9 3 -1 5 -23 4 -22 0 -30 -2 -17 -4z"/>
<path d="M4340 6089 c0 -16 4 -28 9 -25 8 5 3 56 -5 56 -2 0 -4 -14 -4 -31z"/>
<path d="M3247 6103 c-8 -7 23 -32 41 -33 6 0 12 5 12 10 0 6 -7 10 -15 10 -8
0 -15 5 -15 10 0 11 -13 13 -23 3z"/>
<path d="M3038 6043 c7 -3 16 -2 19 1 4 3 -2 6 -13 5 -11 0 -14 -3 -6 -6z"/>
<path d="M2925 5990 c-18 -8 -17 -9 8 -9 16 -1 26 3 22 9 -3 6 -7 10 -8 9 -1
0 -11 -4 -22 -9z"/>
<path d="M4721 5914 c0 -11 3 -14 6 -6 3 7 2 16 -1 19 -3 4 -6 -2 -5 -13z"/>
<path d="M4835 5860 c-8 -13 20 -24 36 -15 8 6 7 10 -2 16 -18 11 -26 11 -34
-1z"/>
<path d="M3496 5714 c-222 -30 -411 -87 -611 -184 -451 -218 -792 -589 -981
-1065 -31 -79 -58 -130 -77 -148 -16 -15 -28 -29 -26 -30 2 -2 16 -8 32 -15
48 -21 92 -122 52 -122 -9 0 -15 10 -15 26 0 15 -12 38 -29 55 -23 23 -38 29
-72 29 -51 0 -102 -30 -118 -68 -17 -41 -16 -112 3 -156 16 -37 15 -41 -8
-100 -37 -93 -50 -184 -42 -310 4 -61 10 -114 14 -118 11 -11 4254 -10 4264 0
16 16 14 282 -2 342 -8 30 -13 59 -12 64 2 5 -1 12 -6 15 -5 3 -15 20 -24 37
-14 29 -13 34 5 69 15 29 18 52 15 97 -6 79 -42 118 -115 125 -42 4 -53 1 -80
-21 -36 -31 -46 -69 -28 -113 15 -35 33 -44 91 -41 39 1 39 1 39 41 -1 41 -22
67 -58 67 -10 0 -15 5 -12 10 9 15 48 12 73 -6 16 -11 22 -25 22 -55 0 -74
-68 -111 -139 -75 -34 18 -51 54 -51 107 0 33 7 48 35 76 25 25 40 33 55 28
26 -8 26 11 0 25 -22 12 -63 71 -75 110 -17 54 -91 218 -132 292 -24 44 -40
84 -37 90 4 7 3 8 -4 4 -6 -4 -16 4 -23 16 -35 67 -191 257 -290 353 -188 182
-380 312 -596 402 -61 26 -109 51 -106 57 3 5 1 6 -5 2 -15 -9 -212 49 -224
66 -7 9 -11 10 -14 2 -3 -8 -16 -9 -42 -3 -162 38 -460 49 -646 23z m283 -245
c9 -1 27 0 41 1 24 2 24 1 -8 -28 -32 -30 -32 -30 -16 -67 8 -20 13 -40 10
-43 -3 -2 -8 3 -12 12 -3 9 -10 14 -14 11 -4 -3 -13 2 -20 10 -17 21 -26 19
-65 -11 l-33 -25 14 46 c12 41 12 49 -1 61 -8 8 -16 14 -17 12 -2 -1 -12 3
-23 10 -17 10 -13 11 28 12 35 0 47 4 47 15 0 8 8 15 18 15 12 0 13 3 5 8 -7
5 -10 17 -6 31 5 21 8 18 21 -22 9 -29 21 -47 31 -48z m-294 -99 l39 -5 -28
-18 c-25 -17 -27 -23 -21 -55 l7 -35 -26 16 c-27 18 -56 22 -56 8 0 -5 -6 -11
-13 -14 -9 -3 -12 4 -9 28 3 28 -1 36 -24 52 l-28 18 39 5 c35 4 41 9 50 37
l9 33 11 -33 c9 -27 16 -33 50 -37z m601 25 c5 -21 12 -25 40 -25 40 0 45 -17
8 -26 -27 -7 -28 -21 -8 -69 8 -20 8 -20 -20 -2 -22 15 -33 16 -57 8 -28 -10
-29 -9 -23 16 5 20 1 30 -22 49 l-29 23 43 1 c23 0 41 3 41 8 -7 42 17 58 27
17z m-55 -315 l29 -21 0 -584 c0 -399 -4 -586 -11 -591 -7 -4 -10 30 -9 107 1
63 0 326 -1 586 -3 370 -7 475 -17 485 -17 17 -414 24 -455 9 l-27 -11 0 -201
c0 -178 -2 -200 -15 -189 -18 15 -21 110 -5 141 8 13 7 19 0 19 -6 0 -10 28
-8 75 1 40 5 72 10 69 4 -3 8 2 8 10 0 9 -5 16 -11 16 -18 0 -2 60 22 81 18
16 44 18 240 19 208 0 222 -1 250 -20z m-411 -290 c0 -133 -4 -210 -10 -210
-6 0 -10 77 -10 210 0 133 4 210 10 210 6 0 10 -77 10 -210z m120 189 c0 -11
-4 -17 -10 -14 -5 3 -10 13 -10 21 0 8 5 14 10 14 6 0 10 -9 10 -21z m47 -161
c-2 -35 -3 -7 -3 62 0 69 1 97 3 63 2 -35 2 -91 0 -125z m60 -90 c-1 -51 -3
-10 -3 92 0 102 2 143 3 93 2 -51 2 -135 0 -185z m73 -444 c0 -482 -3 -713
-10 -709 -13 8 -14 1425 0 1425 5 0 9 -282 10 -716z m47 339 c-1 -71 -3 -13
-3 127 0 140 2 198 3 128 2 -71 2 -185 0 -255z m409 356 c19 -11 39 -29 44
-39 14 -25 13 -387 0 -395 -7 -4 -10 52 -10 172 1 101 -3 190 -9 205 -20 52
-105 73 -193 46 -53 -16 -68 -47 -68 -143 0 -49 -4 -75 -11 -75 -8 0 -10 28
-7 97 5 90 7 98 32 120 15 13 31 21 36 18 5 -3 11 -1 15 5 3 5 36 10 72 10 49
0 74 -5 99 -21z m-696 -715 c0 -451 -3 -694 -10 -694 -6 0 -10 245 -10 701 0
462 3 698 10 694 6 -4 10 -250 10 -701z m-811 638 c49 -36 73 -82 66 -127 -3
-26 0 -57 10 -84 23 -65 23 -1111 0 -1111 -13 0 -15 67 -15 545 0 464 -2 550
-15 575 -10 20 -13 43 -8 75 8 59 -8 89 -62 115 -44 21 -172 29 -160 10 3 -5
0 -10 -8 -10 -39 0 -84 -102 -58 -133 8 -11 7 -22 -6 -48 -11 -21 -19 -64 -21
-116 -2 -46 -8 -83 -13 -83 -16 0 -10 162 7 195 13 25 13 36 3 67 -11 33 -9
39 17 79 43 63 84 81 168 75 47 -3 77 -11 95 -24z m871 -27 c0 -30 -4 -55 -10
-55 -5 0 -10 25 -10 55 0 30 5 55 10 55 6 0 10 -25 10 -55z m460 -650 c0 -420
-4 -655 -10 -655 -6 0 -10 235 -10 655 0 434 3 655 10 655 7 0 10 -221 10
-655z m60 6 c0 -423 -3 -652 -10 -656 -7 -4 -10 215 -10 649 0 431 3 656 10
656 7 0 10 -223 10 -649z m47 102 c-1 -103 -2 -21 -2 182 0 204 1 288 2 188 2
-100 2 -266 0 -370z m60 230 c-1 -60 -3 -11 -3 107 0 118 2 167 3 108 2 -60 2
-156 0 -215z m-1167 266 c0 -14 -17 -10 -23 5 -4 10 -1 13 9 9 7 -3 14 -9 14
-14z m148 -7 c18 -9 32 -24 32 -34 0 -10 6 -18 13 -18 7 0 21 -17 30 -38 15
-35 17 -94 17 -595 0 -412 -3 -557 -11 -557 -9 0 -10 135 -5 531 8 529 8 531
-14 589 -25 67 -52 96 -106 115 -46 16 -60 39 -17 30 15 -4 43 -14 61 -23z
m1438 12 c52 -21 72 -40 100 -96 l24 -47 0 -556 c0 -487 -2 -555 -15 -555 -13
0 -15 70 -16 563 -1 557 -1 562 -22 602 -29 52 -82 78 -169 83 -56 4 -69 1
-74 -12 -7 -18 -34 -22 -34 -6 0 36 140 52 206 24z m-1631 -14 c3 -5 -5 -12
-18 -16 -15 -3 -32 -20 -43 -42 -10 -20 -25 -45 -33 -54 -11 -14 -13 -115 -13
-573 1 -337 -3 -555 -9 -555 -5 0 -9 218 -9 555 1 611 -1 596 64 662 32 33 51
40 61 23z m-765 -30 c0 -6 -50 -10 -129 -10 -76 0 -132 4 -136 10 -4 6 42 10
129 10 84 0 136 -4 136 -10z m90 0 c0 -5 -11 -10 -24 -10 -14 0 -28 5 -31 10
-4 6 7 10 24 10 17 0 31 -4 31 -10z m1259 -280 c0 -179 -4 -288 -10 -285 -12
8 -12 575 0 575 6 0 10 -114 10 -290z m1596 280 c-8 -13 -355 -13 -355 0 0 5
81 9 181 10 122 0 178 -3 174 -10z m-772 -19 c-12 -10 -20 -21 -17 -24 3 -3
-2 -16 -10 -30 -15 -21 -16 -87 -16 -581 0 -306 -4 -556 -9 -556 -4 0 -11 242
-15 539 -6 538 -6 539 16 596 13 35 30 60 42 65 31 13 33 11 9 -9z m-2370 -21
c-24 -10 -31 -30 -11 -30 9 0 9 -3 0 -12 -18 -18 -15 -28 8 -28 11 0 20 -4 20
-10 0 -5 -11 -10 -25 -10 -23 0 -25 3 -25 50 0 48 1 50 28 49 26 0 26 -1 5 -9z
m87 -6 c0 -14 -3 -14 -15 -4 -12 10 -15 10 -15 -3 0 -8 7 -17 15 -21 8 -3 15
-17 15 -31 0 -21 -4 -26 -22 -23 -12 2 -23 9 -26 17 -3 9 2 11 17 6 27 -8 27
6 1 23 -30 18 -26 52 5 52 16 0 25 -6 25 -16z m73 9 c-8 -3 -13 -23 -13 -49 0
-24 -4 -44 -10 -44 -5 0 -10 20 -10 44 0 26 -5 46 -12 49 -7 3 3 5 22 5 19 0
29 -2 23 -5z m89 -15 c7 -50 -3 -78 -28 -78 -22 0 -24 4 -24 50 0 46 2 50 24
50 18 0 26 -6 28 -22z m2628 -3 c0 -14 -7 -28 -15 -31 -8 -4 -15 -10 -15 -15
0 -5 7 -9 15 -9 8 0 15 -4 15 -10 0 -5 -11 -10 -25 -10 -32 0 -34 32 -2 53 18
12 20 18 10 28 -10 10 -13 10 -13 1 0 -7 -4 -12 -10 -12 -5 0 -10 7 -10 15 0
9 9 15 25 15 20 0 25 -5 25 -25z m85 -25 c0 -41 -2 -45 -25 -45 -21 0 -26 5
-28 33 -5 47 4 64 30 60 20 -3 23 -9 23 -48z m55 0 c0 -28 -5 -50 -10 -50 -6
0 -9 20 -8 50 4 65 18 65 18 0z m88 21 c6 -43 -7 -73 -30 -69 -12 2 -23 9 -26
17 -3 9 2 11 17 6 11 -3 21 -2 21 3 0 5 -9 12 -20 15 -19 5 -27 36 -13 51 15
15 48 1 51 -23z m-1511 -153 c-2 -35 -3 -9 -3 57 0 66 1 94 3 63 2 -32 2 -86
0 -120z m353 -184 c0 -185 -4 -314 -9 -314 -6 0 -10 132 -11 321 0 219 3 319
10 314 6 -4 10 -114 10 -321z m-1433 -541 c-1 -158 -2 -31 -2 282 0 314 1 443
2 288 2 -155 2 -411 0 -570z m60 0 c-1 -158 -2 -31 -2 282 0 314 1 443 2 288
2 -155 2 -411 0 -570z m63 281 c0 -374 -3 -563 -10 -559 -6 4 -10 203 -10 566
0 366 3 559 10 559 7 0 10 -195 10 -566z m288 506 c1 -28 -2 -50 -8 -50 -5 0
-10 23 -10 50 0 28 4 50 8 50 4 0 9 -22 10 -50z m52 40 c0 -5 -4 -10 -10 -10
-5 0 -10 5 -10 10 0 6 5 10 10 10 6 0 10 -4 10 -10z m50 0 c0 -5 -2 -10 -4
-10 -3 0 -8 5 -11 10 -3 6 -1 10 4 10 6 0 11 -4 11 -10z m150 -110 c0 -73 -4
-120 -10 -120 -6 0 -10 47 -10 120 0 73 4 120 10 120 6 0 10 -47 10 -120z
m1207 -97 c-1 -43 -3 -10 -3 72 0 83 2 118 3 78 2 -40 2 -107 0 -150z m50 80
c-2 -27 -3 -5 -3 47 0 52 1 74 3 48 2 -27 2 -69 0 -95z m57 45 c-3 -51 -8 -95
-10 -97 -2 -2 -4 39 -4 92 0 63 4 97 11 97 7 0 8 -29 3 -92z m56 -462 c0 -368
-3 -557 -10 -561 -7 -4 -10 175 -10 554 0 345 4 561 9 561 6 0 10 -214 11
-554z m50 0 c0 -364 -3 -557 -10 -561 -7 -4 -10 179 -10 554 0 353 4 561 10
561 6 0 9 -206 10 -554z m50 -6 c0 -367 -3 -560 -10 -560 -7 0 -10 193 -10
560 0 367 3 560 10 560 7 0 10 -193 10 -560z m-1570 500 c0 -27 -4 -50 -10
-50 -5 0 -10 23 -10 50 0 28 5 50 10 50 6 0 10 -22 10 -50z m50 -11 c0 -27 -4
-49 -10 -49 -5 0 -10 25 -10 56 0 34 4 53 10 49 6 -3 10 -28 10 -56z m-673
-51 c-2 -18 -4 -4 -4 32 0 36 2 50 4 33 2 -18 2 -48 0 -65z m243 -454 c0 -361
-3 -543 -10 -539 -6 4 -10 197 -10 546 0 353 3 539 10 539 7 0 10 -189 10
-546z m330 481 c0 -30 -4 -55 -10 -55 -5 0 -10 25 -10 55 0 30 5 55 10 55 6 0
10 -25 10 -55z m308 -308 c-10 -7 -10 -10 0 -14 9 -4 12 -83 12 -349 0 -302
-2 -344 -15 -344 -14 0 -15 61 -15 529 1 400 4 531 13 534 18 6 22 -343 5
-356z m-360 193 c2 -101 -1 -149 -8 -145 -6 4 -10 65 -10 156 0 83 4 148 8
145 5 -3 9 -73 10 -156z m-775 143 c-51 -2 -135 -2 -185 0 -51 1 -10 3 92 3
102 0 143 -2 93 -3z m1454 -60 c-2 -16 -4 -5 -4 22 0 28 2 40 4 28 2 -13 2
-35 0 -50z m1331 60 c-38 -2 -98 -2 -135 0 -38 2 -7 3 67 3 74 0 105 -1 68 -3z
m145 0 c-13 -2 -33 -2 -45 0 -13 2 -3 4 22 4 25 0 35 -2 23 -4z m-2203 -70 c0
-22 -2 -25 -10 -13 -13 20 -13 40 0 40 6 0 10 -12 10 -27z m500 -53 c0 -40 -4
-70 -10 -70 -11 0 -14 123 -3 133 12 13 13 7 13 -63z m-359 17 c-13 -13 -15 1
-4 30 7 17 8 17 11 -1 2 -10 -1 -23 -7 -29z m59 -43 c0 -30 -5 -54 -10 -54 -6
0 -10 26 -9 60 2 74 19 69 19 -6z m-673 -666 c-1 -134 -2 -25 -2 242 0 267 1
376 2 243 2 -134 2 -352 0 -485z m469 685 c-10 -10 -19 5 -10 18 6 11 8 11 12
0 2 -7 1 -15 -2 -18z m104 -17 c0 -25 -5 -48 -10 -51 -7 -4 -10 12 -9 44 3 63
19 68 19 7z m1210 -305 c0 -223 -4 -352 -10 -356 -7 -4 -10 115 -10 349 0 231
4 356 10 356 6 0 10 -123 10 -349z m-583 76 c-1 -45 -3 -5 -3 88 0 94 2 130 3
82 2 -48 2 -125 0 -170z m-60 -295 c-1 -97 -2 -15 -2 183 0 198 1 278 2 177 2
-101 2 -263 0 -360z m180 0 c-1 -97 -2 -15 -2 183 0 198 1 278 2 177 2 -101 2
-263 0 -360z m660 111 c-1 -81 -3 -17 -3 142 0 160 2 226 3 148 2 -78 2 -208
0 -290z m-2037 -33 c0 -266 -4 -450 -9 -450 -6 0 -10 185 -11 450 0 300 3 450
10 450 6 0 10 -150 10 -450z m530 409 c0 -10 -4 -19 -10 -19 -5 0 -10 12 -10
26 0 14 4 23 10 19 6 -3 10 -15 10 -26z m150 21 c0 -5 -4 -10 -10 -10 -5 0
-10 5 -10 10 0 6 5 10 10 10 6 0 10 -4 10 -10z m1407 -167 c-2 -32 -3 -6 -3
57 0 63 1 89 3 58 2 -32 2 -84 0 -115z m-310 -85 c-1 -46 -3 -9 -3 82 0 91 2
128 3 83 2 -46 2 -120 0 -165z m-747 -219 c0 -273 -3 -419 -10 -419 -7 0 -10
149 -10 426 0 281 3 423 10 419 6 -4 10 -157 10 -426z m1648 410 c24 -12 47
-31 52 -43 5 -11 10 -16 11 -11 1 6 6 -17 11 -50 14 -89 22 -715 9 -715 -8 0
-11 99 -11 305 0 283 -1 309 -19 346 -16 32 -18 45 -9 64 9 19 7 30 -10 57
-12 18 -22 29 -22 24 0 -5 -7 -2 -16 5 -28 23 -152 17 -201 -9 -38 -20 -43
-27 -43 -57 0 -18 5 -37 10 -40 6 -4 3 -16 -10 -32 -19 -25 -20 -40 -20 -344
0 -277 -2 -319 -15 -319 -13 0 -15 41 -15 310 0 212 3 310 11 310 5 0 8 4 5 9
-9 14 5 41 21 41 12 0 12 3 -1 22 -70 100 123 194 262 127z m-2048 -14 c0 -8
-4 -15 -10 -15 -5 0 -10 7 -10 15 0 8 5 15 10 15 6 0 10 -7 10 -15z m100 -6
c0 -5 -4 -9 -10 -9 -5 0 -10 7 -10 16 0 8 5 12 10 9 6 -3 10 -10 10 -16z m50
-95 c0 -52 -4 -94 -8 -94 -4 0 -9 45 -10 101 -1 65 1 98 8 94 6 -3 10 -48 10
-101z m-252 41 c2 -23 -1 -34 -8 -30 -5 3 -10 22 -10 41 0 46 15 36 18 -11z
m152 30 c0 -8 -4 -15 -10 -15 -5 0 -10 7 -10 15 0 8 5 15 10 15 6 0 10 -7 10
-15z m1307 -457 c-1 -90 -3 -19 -3 157 0 176 2 249 3 163 2 -86 2 -230 0 -320z
m-1257 67 c0 -262 -3 -395 -10 -395 -7 0 -10 132 -10 395 1 240 5 395 11 395
5 0 9 -154 9 -395z m-154 325 c0 -11 -4 -20 -8 -20 -4 0 -8 9 -8 20 0 11 4 20
8 20 4 0 8 -9 8 -20z m-746 -20 c12 -6 31 -21 43 -33 21 -21 22 -30 25 -304 3
-252 1 -283 -13 -283 -14 0 -15 31 -15 273 1 150 -2 280 -6 290 -25 65 -209
73 -270 12 l-24 -24 0 -311 c0 -200 -4 -310 -10 -310 -16 0 -13 608 3 640 7
13 28 35 47 48 32 22 42 24 117 19 45 -3 92 -11 103 -17z m849 -30 c-2 -51
-19 -61 -19 -10 0 28 8 60 16 60 2 0 3 -22 3 -50z m-149 -320 c0 -223 -3 -350
-10 -350 -6 0 -10 130 -10 356 0 225 3 353 10 349 5 -3 9 -142 10 -355z m50
289 c0 -10 -4 -19 -10 -19 -5 0 -10 12 -10 26 0 14 4 23 10 19 6 -3 10 -15 10
-26z m1950 -304 c0 -217 -4 -335 -10 -335 -6 0 -10 118 -10 335 0 217 4 335
10 335 6 0 10 -118 10 -335z m60 0 c0 -217 -4 -335 -10 -335 -6 0 -10 118 -10
335 0 217 4 335 10 335 6 0 10 -118 10 -335z m60 0 c0 -205 -4 -326 -10 -330
-7 -4 -10 108 -10 330 0 222 3 334 10 330 6 -4 10 -125 10 -330z m-2020 -5 c0
-220 -3 -330 -10 -330 -7 0 -10 110 -10 330 0 189 4 330 10 330 5 0 9 -142 10
-330z m-1420 302 c0 -5 -15 -15 -32 -23 -61 -26 -40 -99 28 -99 23 0 39 8 57
30 22 25 26 27 32 12 10 -26 -47 -72 -90 -72 -42 0 -83 34 -91 75 -8 42 26 85
67 85 16 0 29 -4 29 -8z m2877 -39 c-3 -10 -5 -2 -5 17 0 19 2 27 5 18 2 -10
2 -26 0 -35z m383 -273 c0 -206 -4 -320 -10 -320 -6 0 -10 114 -10 320 0 201
4 320 10 320 6 0 10 -119 10 -320z m227 -162 c-1 -90 -3 -17 -3 162 0 179 2
252 3 163 2 -90 2 -236 0 -325z m-1547 154 c-1 -191 -5 -301 -11 -292 -12 21
-11 613 2 605 6 -4 9 -123 9 -313z m-1450 253 c0 -30 -4 -55 -10 -55 -5 0 -10
25 -10 55 0 30 5 55 10 55 6 0 10 -25 10 -55z m59 -215 c0 -158 -4 -272 -10
-275 -5 -4 -9 98 -9 269 0 177 4 276 10 276 6 0 10 -96 9 -270z m-119 -46 c0
-201 -3 -303 -10 -299 -13 8 -13 605 0 605 6 0 10 -115 10 -306z m180 1 c0
-184 -4 -305 -9 -305 -6 0 -10 121 -11 305 0 199 3 305 10 305 6 0 10 -106 10
-305z m860 0 c0 -189 -4 -305 -10 -305 -9 0 -13 587 -4 602 3 5 7 8 10 8 2 0
4 -137 4 -305z m-100 285 c0 -5 -4 -10 -10 -10 -5 0 -10 5 -10 10 0 6 5 10 10
10 6 0 10 -4 10 -10z m200 -296 c0 -194 -3 -293 -10 -289 -6 4 -10 113 -10
296 0 186 4 289 10 289 6 0 10 -105 10 -296z m477 124 c-2 -35 -3 -9 -3 57 0
66 1 94 3 63 2 -32 2 -86 0 -120z m460 -280 c-1 -79 -3 -15 -3 142 0 157 2
221 3 143 2 -79 2 -207 0 -285z m375 215 c2 -72 0 -129 -4 -126 -5 2 -7 79 -6
171 2 182 6 163 10 -45z m-315 -220 c-1 -76 -3 -14 -3 137 0 151 2 213 3 138
2 -76 2 -200 0 -275z m-1197 360 c0 -7 -4 -13 -10 -13 -5 0 -10 12 -10 28 0
21 2 24 10 12 5 -8 10 -21 10 -27z m-880 -248 c0 -157 -4 -245 -10 -245 -6 0
-10 88 -10 245 0 157 4 245 10 245 6 0 10 -88 10 -245z m1850 20 c0 -136 -4
-225 -10 -225 -5 0 -9 86 -9 217 1 201 3 233 15 233 2 0 4 -101 4 -225z m-970
-46 c0 -139 -4 -219 -10 -219 -6 0 -10 82 -10 226 0 147 3 223 10 219 6 -4 10
-90 10 -226z m677 89 c-3 -7 -5 -2 -5 12 0 14 2 19 5 13 2 -7 2 -19 0 -25z
m780 -35 c-3 -10 -5 -2 -5 17 0 19 2 27 5 18 2 -10 2 -26 0 -35z m-780 -35
c-2 -13 -4 -5 -4 17 -1 22 1 32 4 23 2 -10 2 -28 0 -40z m213 -8 c0 -27 -4
-50 -10 -50 -11 0 -14 83 -3 93 12 12 13 8 13 -43z m567 -12 c-3 -7 -5 -2 -5
12 0 14 2 19 5 13 2 -7 2 -19 0 -25z m-197 -103 c0 -63 -4 -105 -10 -105 -6 0
-10 42 -10 105 0 63 4 105 10 105 6 0 10 -42 10 -105z m-583 -62 c-2 -32 -3
-8 -3 52 0 61 1 87 3 58 2 -29 2 -78 0 -110z m120 -5 c-2 -29 -3 -8 -3 47 0
55 1 79 3 53 2 -26 2 -71 0 -100z m721 53 c1 -54 -2 -92 -8 -96 -6 -4 -10 27
-10 89 0 53 3 96 8 96 4 0 8 -40 10 -89z m-901 42 c-3 -10 -5 -4 -5 12 0 17 2
24 5 18 2 -7 2 -21 0 -30z m840 -75 c-2 -18 -4 -4 -4 32 0 36 2 50 4 33 2 -18
2 -48 0 -65z m-567 12 c0 -40 -4 -70 -10 -70 -6 0 -10 30 -10 70 0 40 4 70 10
70 6 0 10 -30 10 -70z m517 3 c-2 -16 -4 -5 -4 22 0 28 2 40 4 28 2 -13 2 -35
0 -50z m-790 -20 c-3 -10 -5 -2 -5 17 0 19 2 27 5 18 2 -10 2 -26 0 -35z
m-1437 -33 c0 -16 -4 -30 -10 -30 -5 0 -10 14 -10 30 0 17 5 30 10 30 6 0 10
-13 10 -30z m140 0 c0 -11 -7 -20 -15 -20 -8 0 -15 9 -15 20 0 11 7 20 15 20
8 0 15 -9 15 -20z m2087 -17 c-3 -10 -5 -4 -5 12 0 17 2 24 5 18 2 -7 2 -21 0
-30z m-790 -5 c-3 -8 -6 -5 -6 6 -1 11 2 17 5 13 3 -3 4 -12 1 -19z m353 12
c0 -5 -4 -10 -10 -10 -5 0 -10 5 -10 10 0 6 5 10 10 10 6 0 10 -4 10 -10z
m487 -12 c-3 -8 -6 -5 -6 6 -1 11 2 17 5 13 3 -3 4 -12 1 -19z"/>
<path d="M3700 5446 c0 -7 7 -19 15 -26 12 -10 16 -9 21 3 3 9 3 21 -1 27 -9
15 -35 12 -35 -4z"/>
<path d="M3394 5364 c-13 -5 -6 -54 7 -54 5 0 9 14 9 30 0 17 -1 30 -2 29 -2
0 -8 -3 -14 -5z"/>
<path d="M2406 4743 c-13 -13 -6 -63 9 -63 10 0 15 10 15 29 0 30 -12 46 -24
34z"/>
<path d="M5120 4715 c0 -19 5 -35 10 -35 6 0 10 16 10 35 0 19 -4 35 -10 35
-5 0 -10 -16 -10 -35z"/>
<path d="M5260 4736 c0 -9 5 -16 10 -16 6 0 10 4 10 9 0 6 -4 13 -10 16 -5 3
-10 -1 -10 -9z"/>
<path d="M2315 5659 c-4 -6 -4 -13 -1 -16 3 -4 6 -1 6 6 0 7 5 9 12 5 7 -4 8
-3 4 4 -9 15 -13 15 -21 1z"/>
<path d="M2210 5579 c0 -5 5 -7 10 -4 6 3 10 8 10 11 0 2 -4 4 -10 4 -5 0 -10
-5 -10 -11z"/>
<path d="M2040 5435 c-7 -9 -8 -15 -2 -15 5 0 12 7 16 15 3 8 4 15 2 15 -2 0
-9 -7 -16 -15z"/>
<path d="M1813 5314 c-3 -8 -1 -20 6 -27 14 -14 47 15 37 32 -10 16 -36 13
-43 -5z"/>
<path d="M5750 5150 c-13 -9 -12 -12 4 -25 22 -17 56 -20 56 -6 0 37 -29 52
-60 31z"/>
<path d="M5737 5049 c7 -7 15 -10 18 -7 3 3 -2 9 -12 12 -14 6 -15 5 -6 -5z"/>
<path d="M1696 4981 c-4 -5 3 -7 14 -4 23 6 26 13 6 13 -8 0 -17 -4 -20 -9z"/>
<path d="M5820 4960 c0 -5 5 -10 11 -10 5 0 7 5 4 10 -3 6 -8 10 -11 10 -2 0
-4 -4 -4 -10z"/>
<path d="M5850 4930 c0 -5 16 -10 35 -10 19 0 35 5 35 10 0 6 -16 10 -35 10
-19 0 -35 -4 -35 -10z"/>
<path d="M1640 4904 c0 -8 5 -12 10 -9 6 3 10 10 10 16 0 5 -4 9 -10 9 -5 0
-10 -7 -10 -16z"/>
<path d="M1615 4850 c-3 -5 -1 -10 4 -10 6 0 11 5 11 10 0 6 -2 10 -4 10 -3 0
-8 -4 -11 -10z"/>
<path d="M5911 4814 c-10 -12 -10 -19 -2 -27 14 -14 47 15 37 32 -9 15 -18 13
-35 -5z"/>
<path d="M5930 4725 c0 -5 5 -17 10 -25 5 -8 10 -10 10 -5 0 6 -5 17 -10 25
-5 8 -10 11 -10 5z"/>
<path d="M5961 4655 c1 -19 18 -51 18 -35 0 8 -4 22 -9 30 -5 8 -9 11 -9 5z"/>
<path d="M6070 4534 c0 -8 5 -12 10 -9 6 3 10 10 10 16 0 5 -4 9 -10 9 -5 0
-10 -7 -10 -16z"/>
<path d="M1400 4510 c0 -5 9 -10 20 -10 11 0 20 5 20 10 0 6 -9 10 -20 10 -11
0 -20 -4 -20 -10z"/>
<path d="M1480 4501 c0 -5 5 -13 10 -16 6 -3 10 -2 10 4 0 5 -4 13 -10 16 -5
3 -10 2 -10 -4z"/>
<path d="M6060 4369 c0 -12 7 -19 19 -19 25 0 36 16 19 27 -24 14 -38 11 -38
-8z"/>
<path d="M1527 4303 c-17 -17 -3 -33 35 -40 23 -5 43 -14 46 -22 4 -13 -22
-11 -80 5 -14 4 -18 -1 -18 -19 0 -22 6 -26 45 -31 25 -4 45 -12 45 -18 0 -6
-18 -7 -49 -3 -43 6 -49 4 -54 -14 -4 -17 1 -21 32 -27 52 -8 63 -13 57 -22
-3 -5 -26 -6 -50 -2 -35 5 -46 3 -51 -8 -8 -22 7 -33 54 -39 22 -3 38 -10 35
-15 -4 -6 -25 -7 -51 -3 -42 6 -44 5 -41 -17 2 -19 10 -23 46 -26 59 -4 53
-22 -8 -22 -43 0 -50 -3 -50 -20 0 -14 7 -20 23 -20 34 0 67 -11 67 -23 0 -6
-17 -7 -44 -4 -35 5 -45 3 -50 -9 -10 -26 3 -34 50 -34 24 0 44 -4 44 -10 0
-5 -22 -10 -50 -10 -43 0 -50 -3 -50 -20 0 -16 9 -21 50 -26 28 -4 50 -10 50
-15 0 -5 -22 -9 -50 -9 -43 0 -50 -3 -50 -20 0 -17 7 -20 50 -20 64 0 66 -18
3 -22 -41 -3 -48 -6 -51 -25 -3 -21 0 -23 47 -23 28 0 51 -4 51 -10 0 -5 -23
-10 -51 -10 -46 0 -50 -2 -47 -22 3 -20 8 -22 51 -19 60 3 62 -15 2 -25 -36
-5 -45 -10 -45 -26 0 -17 6 -19 45 -17 25 2 45 -1 45 -6 0 -6 -18 -11 -40 -13
-22 -2 -40 -7 -40 -13 0 -9 92 -13 101 -5 3 3 1 58 -4 123 -9 130 4 364 28
498 30 165 32 148 -14 168 -45 19 -54 20 -64 10z"/>
<path d="M5899 4290 l-37 -19 14 -58 c8 -32 21 -109 29 -171 17 -131 21 -427
5 -437 -8 -5 -8 -11 -1 -19 6 -7 8 -29 4 -49 l-6 -37 57 0 c36 0 55 4 51 10
-3 6 -24 10 -46 10 -21 0 -39 5 -39 10 0 6 23 10 50 10 43 0 50 3 50 20 0 15
-7 20 -27 21 -16 0 -37 4 -48 9 -19 7 -19 8 -2 15 10 4 31 5 47 1 27 -5 30 -3
30 19 0 23 -4 25 -45 25 -25 0 -45 5 -45 10 0 6 23 10 51 10 47 0 50 2 47 23
-3 19 -10 22 -50 25 -64 4 -62 22 2 22 43 0 50 3 50 20 0 17 -7 20 -50 20 -27
0 -50 5 -50 10 0 6 17 10 38 10 46 0 67 13 58 35 -5 13 -16 16 -51 13 -31 -2
-45 1 -45 9 0 9 16 13 45 13 41 0 45 2 45 24 0 22 -3 23 -45 18 -27 -3 -45 -1
-45 6 0 11 33 22 68 22 16 0 22 6 22 21 0 20 -4 21 -50 17 -37 -4 -50 -2 -50
8 0 8 16 14 43 16 35 3 43 7 45 26 3 22 2 23 -47 16 -34 -4 -51 -3 -51 4 0 6
20 14 45 18 36 5 45 10 45 27 0 18 -4 19 -51 14 -37 -5 -49 -3 -46 6 2 7 12
13 23 15 54 8 64 13 64 33 0 18 -4 19 -50 13 -62 -8 -68 9 -7 22 32 7 42 14
42 29 0 16 -6 19 -27 17 -35 -4 -37 15 -2 24 17 4 23 11 20 21 -3 8 -6 17 -6
19 0 10 -38 2 -71 -16z"/>
<path d="M6140 4300 c0 -5 4 -10 9 -10 6 0 13 5 16 10 3 6 -1 10 -9 10 -9 0
-16 -4 -16 -10z"/>
<path d="M6130 3820 c0 -5 7 -10 15 -10 8 0 15 5 15 10 0 6 -7 10 -15 10 -8 0
-15 -4 -15 -10z"/>
<path d="M1420 3674 c0 -8 5 -12 10 -9 6 3 10 10 10 16 0 5 -4 9 -10 9 -5 0
-10 -7 -10 -16z"/>
<path d="M6215 3490 c3 -5 8 -10 11 -10 2 0 4 5 4 10 0 6 -5 10 -11 10 -5 0
-7 -4 -4 -10z"/>
<path d="M3935 3380 c-3 -5 1 -10 9 -10 9 0 16 5 16 10 0 6 -4 10 -9 10 -6 0
-13 -4 -16 -10z"/>
<path d="M2465 3370 c-3 -5 0 -12 6 -16 17 -10 89 -13 89 -3 0 5 -3 9 -7 9 -5
0 -25 4 -46 9 -20 5 -39 5 -42 1z"/>
<path d="M4630 3370 c0 -5 5 -10 11 -10 5 0 7 5 4 10 -3 6 -8 10 -11 10 -2 0
-4 -4 -4 -10z"/>
<path d="M5750 3370 c0 -5 7 -10 15 -10 8 0 15 5 15 10 0 6 -7 10 -15 10 -8 0
-15 -4 -15 -10z"/>
<path d="M2363 3350 c-3 -11 -10 -20 -15 -20 -5 0 -6 -5 -3 -11 8 -11 62 -3
83 13 24 20 13 38 -24 38 -27 0 -37 -5 -41 -20z"/>
<path d="M5710 3346 c0 -9 5 -16 10 -16 6 0 10 4 10 9 0 6 -4 13 -10 16 -5 3
-10 -1 -10 -9z"/>
<path d="M5823 3341 c-4 -18 -13 -21 -55 -21 -48 0 -50 -1 -43 -22 4 -13 10
-45 12 -71 4 -39 1 -51 -13 -62 -40 -30 -104 -9 -104 35 0 36 -28 85 -59 103
-24 14 -57 17 -205 17 -161 0 -198 -6 -166 -25 15 -9 13 -340 -2 -365 -10 -16
-10 -24 0 -40 16 -27 17 -371 0 -388 -15 -15 -1 -19 90 -25 72 -4 95 4 73 26
-7 7 -11 50 -11 107 0 81 3 100 18 113 44 40 58 22 112 -137 22 -63 41 -103
55 -111 26 -17 142 -28 150 -15 4 6 -2 18 -13 28 -21 17 -112 258 -112 294 0
10 9 29 21 41 47 49 50 61 50 184 0 74 4 110 9 97 10 -24 36 -38 46 -23 3 5 0
17 -7 25 -6 8 -9 17 -5 21 8 9 46 -27 46 -44 0 -7 7 -16 15 -19 21 -8 21 -112
-1 -142 -14 -20 -14 -24 0 -44 13 -18 16 -56 16 -200 0 -122 -4 -184 -12 -198
-7 -10 -10 -22 -6 -25 3 -3 94 -15 202 -26 153 -16 201 -17 212 -8 9 8 14 33
14 79 0 71 -6 86 -26 69 -8 -6 -48 -8 -115 -3 -135 9 -139 13 -139 138 0 73 4
98 16 110 19 20 60 20 96 2 15 -8 29 -12 32 -8 11 11 6 138 -6 150 -7 7 -33
12 -59 12 -38 0 -51 5 -63 22 -22 31 -20 47 4 41 11 -3 28 -2 37 1 14 6 15 9
3 16 -11 7 -11 11 -1 24 9 11 10 16 2 16 -6 0 -11 -3 -11 -7 0 -5 -11 -9 -25
-9 -22 -2 -25 2 -25 33 0 68 9 73 123 73 74 0 108 -4 123 -15 12 -8 24 -11 28
-8 11 12 6 139 -6 151 -8 8 -58 12 -160 12 -83 0 -148 4 -148 9 0 5 5 11 12
13 9 3 9 6 -1 12 -8 5 -14 1 -18 -13z m-362 -161 c15 -9 19 -22 19 -71 0 -53
-2 -60 -17 -56 -32 9 -78 16 -66 11 9 -4 10 -11 3 -23 -5 -10 -6 -22 -2 -25 4
-4 -5 -5 -21 -1 -32 9 -37 -9 -6 -25 14 -8 24 -8 33 -1 7 6 27 8 45 5 23 -5
31 -12 31 -29 0 -12 -8 -29 -17 -37 -24 -20 -102 -50 -114 -43 -14 9 -12 278
3 293 15 15 82 16 109 2z m16 -156 c-3 -3 -12 -4 -19 -1 -8 3 -5 6 6 6 11 1
17 -2 13 -5z m-24 -189 c4 -8 3 -16 -1 -19 -4 -3 -9 4 -9 15 -2 23 3 25 10 4z"/>
<path d="M5356 3051 c-3 -5 1 -12 10 -15 20 -8 29 -1 19 13 -8 13 -22 14 -29
2z"/>
<path d="M1780 3340 c0 -5 7 -10 15 -10 8 0 15 5 15 10 0 6 -7 10 -15 10 -8 0
-15 -4 -15 -10z"/>
<path d="M4662 3338 c-9 -10 -80 -14 -252 -18 -131 -3 -241 -8 -245 -11 -10
-11 -18 -77 -11 -103 6 -23 9 -24 32 -16 33 13 100 13 125 0 17 -10 19 -22 19
-115 0 -58 -5 -115 -12 -130 -9 -19 -9 -28 0 -37 16 -16 17 -349 1 -365 -23
-23 3 -33 88 -33 75 0 84 -2 73 -15 -17 -20 -5 -32 15 -15 22 18 19 51 -5 57
-19 5 -20 14 -20 182 0 126 4 181 12 189 10 10 10 17 0 32 -7 12 -12 60 -12
130 0 135 5 140 145 118 18 -3 20 3 20 58 0 57 1 60 22 56 19 -4 23 0 23 22 0
30 -1 31 -18 14z"/>
<path d="M4043 3320 c-5 -17 -8 -18 -27 -7 -13 8 -65 12 -141 12 -182 0 -215
-27 -215 -172 0 -115 11 -145 76 -200 31 -27 60 -57 64 -69 5 -12 21 -24 37
-27 15 -3 47 -22 71 -42 39 -34 42 -40 42 -89 0 -29 -5 -57 -12 -64 -14 -14
-106 -16 -127 -3 -11 7 -13 24 -8 70 l5 61 -58 0 c-80 0 -90 -12 -90 -104 0
-87 25 -134 80 -153 45 -15 225 -15 270 0 19 7 44 27 57 46 20 29 23 47 23
125 0 115 -18 157 -89 211 -28 22 -54 50 -57 62 -4 16 -14 23 -29 23 -21 0
-91 48 -107 73 -12 19 -9 102 4 115 17 17 113 15 128 -2 6 -8 10 -34 8 -58
l-3 -43 48 -3 c32 -2 57 2 73 13 21 13 24 23 24 73 0 32 -7 70 -15 86 -10 18
-13 41 -10 58 8 32 -14 40 -22 8z"/>
<path d="M3060 3322 c-81 -3 -98 -8 -82 -24 17 -17 17 -339 0 -356 -10 -10
-10 -17 0 -32 15 -25 17 -366 2 -375 -27 -17 -2 -25 74 -25 78 0 111 10 86 25
-6 3 -10 49 -10 105 0 103 19 180 45 180 7 0 36 -59 64 -132 29 -73 59 -141
68 -150 13 -14 32 -18 90 -18 40 0 73 3 73 7 0 4 -9 17 -21 29 -27 29 -169
394 -169 434 0 34 124 263 159 294 12 11 21 23 21 28 0 4 -34 8 -75 8 -89 0
-93 -3 -155 -116 -52 -96 -78 -134 -91 -134 -12 0 -12 217 1 225 14 9 13 22
-2 26 -7 2 -42 3 -78 1z m255 -652 c3 -5 1 -10 -4 -10 -6 0 -11 5 -11 10 0 6
2 10 4 10 3 0 8 -4 11 -10z"/>
<path d="M1405 3311 c-3 -6 1 -21 9 -33 13 -18 16 -55 16 -198 0 -126 -4 -180
-12 -188 -10 -10 -10 -17 -1 -31 8 -13 12 -81 12 -207 0 -154 -2 -193 -15
-212 -9 -13 -13 -26 -10 -29 3 -4 74 1 158 10 180 19 242 43 293 115 29 42 30
49 33 162 3 103 1 124 -18 169 -20 46 -21 54 -9 83 9 20 14 70 14 128 0 127
-21 170 -103 208 -53 25 -69 27 -208 30 -100 2 -154 0 -159 -7z m339 -87 c3
-8 2 -12 -4 -9 -6 3 -10 10 -10 16 0 14 7 11 14 -7z m-12 -77 c14 -21 9 -102
-8 -125 -15 -21 -121 -82 -144 -82 -15 0 -13 205 3 218 29 24 131 17 149 -11z
m12 -339 c11 -16 16 -46 16 -101 0 -70 -2 -80 -25 -101 -29 -27 -129 -44 -151
-25 -17 14 -19 150 -4 180 13 23 96 68 127 69 12 0 29 -10 37 -22z"/>
<path d="M2018 3302 c-49 -30 -58 -65 -58 -223 0 -116 -3 -146 -16 -160 -15
-16 -15 -20 0 -41 13 -18 16 -52 16 -181 l0 -159 35 -35 35 -35 123 4 c133 4
166 14 201 61 19 25 21 45 24 185 2 89 8 162 14 169 6 8 7 20 2 30 -5 10 -11
88 -14 173 -7 221 -16 230 -213 230 -97 0 -128 -4 -149 -18z m210 -124 c17
-17 17 -539 0 -556 -7 -7 -36 -12 -65 -12 -41 0 -54 4 -63 19 -6 12 -10 116
-10 268 0 290 1 293 79 293 26 0 52 -5 59 -12z m-188 -398 c0 -5 -5 -10 -11
-10 -5 0 -7 5 -4 10 3 6 8 10 11 10 2 0 4 -4 4 -10z"/>
<path d="M2130 2707 c18 -18 60 -32 60 -19 0 5 -8 12 -17 15 -10 2 -27 8 -38
12 -18 7 -18 6 -5 -8z"/>
<path d="M2519 3305 c-20 -11 -35 -12 -64 -4 -39 11 -105 4 -105 -10 0 -5 25
-13 56 -17 l56 -9 -1 -154 c-2 -119 -5 -158 -17 -177 -14 -21 -14 -25 0 -46
13 -18 16 -52 16 -173 0 -166 5 -181 63 -211 26 -14 51 -16 146 -10 100 5 121
10 153 31 49 32 58 68 58 228 0 74 5 137 11 149 8 14 8 23 0 31 -7 7 -11 63
-11 149 0 151 -7 179 -56 217 -24 19 -40 21 -153 21 -89 -1 -134 -5 -152 -15z
m209 -127 c18 -18 17 -522 0 -536 -7 -5 -34 -12 -59 -16 -80 -12 -79 -14 -79
275 0 154 4 258 10 270 9 15 22 19 63 19 29 0 58 -5 65 -12z m109 -373 c0 -8
-4 -12 -9 -9 -5 3 -6 10 -3 15 9 13 12 11 12 -6z"/>
<path d="M2686 2731 c-4 -7 -5 -15 -2 -18 9 -9 19 4 14 18 -4 11 -6 11 -12 0z"/>
<path d="M4710 3293 c-46 -38 -53 -64 -51 -205 1 -86 -3 -134 -11 -148 -10
-15 -10 -22 0 -32 8 -8 12 -56 12 -155 0 -227 16 -247 205 -258 105 -5 124 -4
155 12 53 28 60 50 60 213 0 115 3 150 16 168 14 20 14 24 0 44 -13 18 -16 52
-16 161 0 213 -14 227 -214 227 -120 0 -126 -1 -156 -27z m230 -122 c15 -29
13 -271 -2 -271 -9 0 -9 -3 0 -12 13 -13 17 -212 6 -242 -8 -20 -113 -23 -132
-4 -9 9 -12 83 -12 273 0 144 3 265 7 268 3 4 32 7 64 7 47 0 60 -4 69 -19z"/>
<path d="M4610 3090 c0 -5 7 -7 15 -4 8 4 15 8 15 10 0 2 -7 4 -15 4 -8 0 -15
-4 -15 -10z"/>
<path d="M2940 3060 c0 -5 7 -10 15 -10 8 0 15 5 15 10 0 6 -7 10 -15 10 -8 0
-15 -4 -15 -10z"/>
<path d="M4605 3051 c-3 -5 -1 -12 5 -16 12 -7 30 2 30 16 0 12 -27 12 -35 0z"/>
<path d="M4046 3041 c-4 -7 -5 -15 -2 -18 9 -9 19 4 14 18 -4 11 -6 11 -12 0z"/>
<path d="M4550 3042 c0 -12 19 -26 26 -19 2 2 -2 10 -11 17 -9 8 -15 8 -15 2z"/>
<path d="M5650 2970 c0 -5 9 -10 20 -10 11 0 20 5 20 10 0 6 -9 10 -20 10 -11
0 -20 -4 -20 -10z"/>
<path d="M3680 2810 c0 -5 5 -10 11 -10 5 0 7 5 4 10 -3 6 -8 10 -11 10 -2 0
-4 -4 -4 -10z"/>
<path d="M4610 2755 c0 -8 5 -15 10 -15 6 0 10 7 10 15 0 8 -4 15 -10 15 -5 0
-10 -7 -10 -15z"/>
<path d="M4610 2710 c0 -5 5 -10 10 -10 6 0 10 5 10 10 0 6 -4 10 -10 10 -5 0
-10 -4 -10 -10z"/>
<path d="M3865 2679 c-4 -6 -5 -13 -2 -16 7 -7 27 6 27 18 0 12 -17 12 -25 -2z"/>
<path d="M5980 2665 c0 -8 5 -15 10 -15 6 0 10 7 10 15 0 8 -4 15 -10 15 -5 0
-10 -7 -10 -15z"/>
<path d="M4575 2580 c3 -5 13 -10 21 -10 8 0 12 5 9 10 -3 6 -13 10 -21 10 -8
0 -12 -4 -9 -10z"/>
<path d="M4585 2520 c-3 -5 -1 -10 4 -10 6 0 11 5 11 10 0 6 -2 10 -4 10 -3 0
-8 -4 -11 -10z"/>
<path d="M2850 2440 c0 -5 5 -10 11 -10 5 0 7 5 4 10 -3 6 -8 10 -11 10 -2 0
-4 -4 -4 -10z"/>
<path d="M5940 2360 c0 -5 5 -10 10 -10 6 0 10 5 10 10 0 6 -4 10 -10 10 -5 0
-10 -4 -10 -10z"/>
<path d="M3804 2342 c6 -10 -289 -22 -544 -22 -252 0 -1102 -32 -1208 -46
l-43 -5 76 -85 c62 -68 73 -84 56 -84 -24 0 -28 -23 -6 -42 42 -38 46 -39 73
-30 24 8 35 3 100 -51 80 -65 282 -202 310 -212 14 -4 17 -13 14 -35 -3 -18 0
-30 7 -30 6 0 11 7 11 15 0 21 32 12 145 -41 464 -217 1019 -266 1526 -135 63
16 145 41 184 55 38 14 72 21 75 17 3 -4 12 -11 20 -14 12 -4 11 -6 -2 -6 -20
-1 -25 -30 -5 -32 6 -1 1 -5 -13 -9 -17 -6 -9 -7 25 -3 46 5 48 5 33 -11 -9
-9 -24 -16 -32 -16 -10 0 -13 -6 -9 -17 4 -11 3 -14 -5 -9 -8 5 -10 2 -6 -8 7
-18 39 -21 49 -6 3 6 15 10 26 10 11 0 26 6 33 13 18 17 8 74 -15 91 -10 7
-16 16 -12 19 6 7 -19 11 -44 8 -7 -1 -13 3 -13 9 0 5 11 10 24 10 13 0 26 3
28 8 2 4 57 34 122 67 142 71 278 160 401 260 118 96 315 295 293 295 -12 0
-16 5 -12 18 5 13 4 14 -4 3 -8 -12 -37 -13 -159 -7 -81 4 -242 11 -358 16
-115 5 -343 12 -505 15 -426 8 -620 16 -620 26 0 5 -5 9 -11 9 -5 0 -8 -4 -5
-8z m-1091 -114 c70 -49 69 -46 41 -88 -26 -39 -25 -60 1 -60 21 0 51 60 35
70 -9 6 -9 9 0 15 7 4 16 2 20 -5 4 -6 10 -11 14 -11 3 1 39 -15 79 -36 39
-20 126 -58 192 -84 109 -43 120 -50 126 -75 15 -77 65 -107 165 -102 35 2 64
0 64 -4 0 -5 3 -7 8 -6 4 1 34 -7 66 -17 78 -23 375 -25 449 -2 26 8 47 12 47
9 0 -4 4 -1 9 6 6 10 35 14 94 15 80 2 88 4 116 31 18 17 32 43 36 65 6 36 8
37 93 66 102 35 300 133 389 192 l61 41 134 -9 c73 -4 152 -8 176 -9 23 0 42
-5 42 -10 0 -7 -34 -10 -95 -9 l-95 2 -56 -43 c-94 -70 -253 -163 -370 -214
-118 -52 -274 -106 -314 -108 -14 -1 -29 -5 -35 -9 -19 -13 -180 -39 -319 -51
-273 -23 -600 27 -858 131 -161 64 -358 175 -471 264 -37 29 -41 30 -138 28
-64 -1 -99 2 -99 8 0 6 23 12 53 12 54 2 272 14 295 17 7 1 27 -8 45 -20z
m737 -53 c7 -19 17 -25 42 -26 l33 -1 -27 -11 c-30 -12 -34 -27 -18 -58 14
-24 -5 -26 -19 -1 -10 16 -12 16 -40 0 l-30 -17 5 28 c5 22 1 32 -17 45 l-23
16 32 0 c25 0 33 5 38 25 3 14 8 25 10 25 3 0 9 -11 14 -25z m611 8 c1 -10 1
-21 0 -25 -1 -9 14 -11 43 -8 18 2 18 1 2 -16 -12 -11 -16 -27 -14 -46 5 -32
-6 -37 -23 -9 -7 11 -19 16 -30 14 -11 -3 -17 -9 -14 -13 3 -4 -2 -11 -11 -14
-12 -4 -14 -1 -9 13 14 45 14 60 -1 54 -8 -3 -14 0 -14 6 0 6 11 11 25 11 14
0 24 3 24 8 -4 21 2 42 11 42 6 0 11 -8 11 -17z m-273 -84 c26 -10 26 -13 10
-39 -10 -15 -10 -27 -1 -51 11 -28 10 -29 -5 -18 -9 7 -22 19 -28 26 -8 9 -19
7 -49 -14 -22 -15 -36 -20 -33 -12 3 8 14 19 26 25 12 6 19 14 15 17 -3 4 -1
7 5 7 7 0 12 5 12 11 0 8 -4 8 -14 0 -12 -10 -21 -7 -46 16 l-32 28 38 5 c33
4 39 9 47 40 l10 35 11 -34 c7 -19 22 -38 34 -42z m-1400 38 c2 -12 -3 -17
-17 -17 -12 0 -21 6 -21 13 0 31 32 34 38 4z m2762 -9 c0 -15 -32 -21 -40 -7
-13 20 9 43 26 28 8 -6 14 -16 14 -21z m-2616 -11 c31 -25 31 -57 0 -57 -10 0
-14 5 -11 14 3 8 0 20 -8 26 -10 8 -21 1 -49 -32 -39 -45 -41 -63 -10 -63 13
0 19 7 19 22 0 12 4 25 8 29 4 4 7 2 7 -4 0 -7 7 -12 15 -12 22 0 18 -16 -12
-50 l-28 -30 -32 20 c-18 11 -33 26 -33 33 0 18 81 127 94 127 6 0 24 -11 40
-23z m2496 8 c13 -15 10 -17 -25 -19 -11 -1 -20 -8 -20 -16 0 -11 13 -16 48
-18 39 -3 50 -7 59 -27 14 -30 7 -47 -26 -65 -24 -12 -29 -12 -43 3 -14 13
-15 19 -5 29 10 10 15 10 21 -1 10 -16 31 -6 31 15 0 10 -12 14 -42 14 -69 0
-103 51 -56 84 28 20 42 20 58 1z m-90 -55 c0 -5 -6 -7 -14 -4 -9 3 -16 -4
-20 -21 -7 -29 0 -49 15 -39 6 3 17 3 26 0 15 -6 15 -8 0 -19 -14 -10 -14 -14
-2 -31 13 -18 16 -18 39 -3 30 20 47 3 20 -19 -26 -20 -55 -36 -58 -32 -2 2
-24 33 -49 70 l-46 66 37 25 c36 24 52 26 52 7z m-2306 -23 c34 -27 31 -46
-14 -95 -16 -18 -30 -42 -30 -53 0 -12 -5 -19 -12 -16 -8 2 -12 17 -10 36 2
36 -22 44 -33 10 -5 -16 -10 -18 -21 -8 -12 9 -11 15 6 39 11 16 20 31 20 35
0 3 12 17 26 30 15 14 24 25 20 25 -4 0 -4 5 -1 10 9 15 17 13 49 -13z m2216
-77 c-9 -6 -16 -6 -18 0 -5 13 -29 13 -37 0 -4 -7 28 -71 50 -98 8 -9 35 13
31 25 -9 22 3 36 20 22 23 -19 16 -47 -16 -64 -16 -8 -33 -15 -39 -15 -11 0
-81 109 -81 127 0 7 15 22 32 33 33 20 33 20 53 0 17 -18 18 -22 5 -30z
m-2102 0 c7 0 12 -7 12 -16 0 -15 -2 -15 -26 1 -33 21 -56 6 -36 -25 13 -21 0
-36 -19 -24 -11 7 -29 -12 -29 -32 0 -6 12 -16 27 -23 18 -8 23 -15 16 -22 -8
-8 -23 -4 -50 12 l-39 22 44 74 44 74 22 -20 c12 -12 28 -21 34 -21z m2026
-81 c30 -56 36 -73 25 -80 -7 -4 -14 -7 -15 -6 -9 12 -74 142 -74 149 0 4 6 8
13 8 6 0 29 -32 51 -71z m-1942 46 c5 -5 -14 -114 -28 -157 -7 -24 -33 -11
-26 14 4 17 1 19 -29 16 -19 -1 -36 0 -39 3 -7 9 92 128 106 128 6 1 13 -1 16
-4z m1873 -35 c8 -16 15 -38 15 -49 0 -11 11 -28 25 -39 21 -17 23 -21 9 -26
-9 -4 -24 0 -34 9 -23 21 -44 20 -35 -2 11 -29 11 -35 -2 -40 -7 -2 -21 14
-33 37 -12 23 -17 39 -11 35 6 -3 11 -1 11 4 0 6 6 11 14 11 22 0 28 17 16 40
-13 25 -35 21 -35 -5 0 -28 -20 -28 -33 0 -10 22 -9 26 16 39 41 23 60 19 77
-14z m-1785 -10 c45 -23 54 -44 15 -34 -16 4 -25 2 -25 -6 0 -6 -11 -35 -25
-65 -18 -37 -30 -52 -40 -48 -10 3 -12 10 -6 21 5 10 19 39 31 66 20 44 20 50
6 58 -18 10 -22 28 -6 28 6 0 29 -9 50 -20z m1675 -40 c20 -39 19 -53 -5 -75
-16 -14 -19 -26 -15 -47 13 -55 -20 -29 -48 40 -33 81 -33 86 -4 100 37 18 56
13 72 -18z m-1490 -34 c29 -12 35 -20 35 -44 0 -16 -3 -32 -7 -35 -3 -4 -8
-19 -9 -34 -5 -45 -27 -58 -74 -44 -22 6 -40 13 -40 15 0 2 11 37 25 78 14 40
25 74 25 76 0 5 12 2 45 -12z m1295 -32 c6 -14 10 -37 10 -52 0 -14 10 -36 21
-49 20 -20 20 -23 5 -29 -11 -4 -22 1 -32 15 -22 31 -38 26 -30 -9 4 -21 2
-30 -8 -30 -13 0 -36 50 -54 122 -10 35 -9 38 16 47 45 16 62 13 72 -15z
m-1172 0 c25 -7 28 -28 11 -86 -6 -23 -16 -38 -26 -38 -9 0 -13 6 -10 14 3 8
9 31 13 50 5 29 3 36 -10 36 -9 0 -19 -15 -26 -41 -6 -22 -13 -46 -16 -53 -3
-8 9 -20 28 -29 l33 -17 -36 0 c-43 0 -64 20 -54 51 4 12 8 27 10 33 5 25 18
72 22 79 5 8 30 9 61 1z m1062 -13 c0 -13 -37 -24 -50 -16 -6 4 -8 11 -5 16 8
12 55 12 55 0z m-59 -43 c10 -10 25 -18 34 -18 19 0 20 -16 0 -27 -9 -5 -12
-17 -9 -30 5 -18 10 -20 34 -13 27 8 40 5 40 -10 0 -11 -82 -32 -90 -23 -4 4
-14 40 -23 79 -17 70 -21 104 -10 74 3 -8 14 -23 24 -32z m-878 17 c9 -8 14
-23 12 -32 -24 -116 -27 -123 -52 -123 -47 0 -64 17 -57 58 16 98 23 112 54
112 16 0 35 -7 43 -15z m837 0 c0 -8 -7 -15 -16 -15 -13 0 -14 -9 -8 -56 10
-83 10 -87 -2 -91 -10 -3 -34 79 -34 118 0 15 -7 19 -31 19 l-32 0 7 -52 c4
-29 10 -63 13 -75 4 -16 1 -23 -10 -23 -11 0 -19 17 -27 58 -16 79 -18 85 -35
78 -9 -3 -15 0 -15 8 0 10 23 18 73 26 39 6 77 13 82 15 22 8 35 4 35 -10z
m-720 -44 c-21 -31 -25 -109 -5 -123 5 -4 6 -11 1 -15 -10 -10 -36 25 -36 49
0 30 -20 20 -27 -12 -7 -38 -29 -33 -26 6 5 75 15 114 29 114 8 0 14 -8 14
-17 1 -15 3 -15 18 4 9 12 25 22 35 23 17 0 17 -2 -3 -29z m134 2 c3 -8 4 -19
0 -24 -8 -13 -34 -11 -31 3 1 6 -6 14 -15 16 -28 6 -21 -21 12 -53 52 -49 26
-111 -37 -89 -31 11 -46 54 -19 54 9 0 16 -7 16 -15 0 -8 9 -15 20 -15 29 0
25 22 -10 55 -33 31 -39 69 -14 83 22 12 72 3 78 -15z m328 8 c-20 -12 -11
-57 11 -53 10 2 17 -3 17 -13 0 -8 -7 -15 -15 -15 -9 0 -15 -9 -15 -25 0 -22
4 -25 35 -25 43 0 46 -15 4 -24 -47 -9 -66 -7 -66 7 0 6 -3 45 -7 85 l-6 72
27 0 c19 0 24 -3 15 -9z m-59 -70 c9 -75 2 -87 -53 -93 -40 -3 -40 -3 -41 32
0 19 -2 57 -4 83 l-4 48 47 -3 47 -3 8 -64z m-213 -81 c0 -5 -7 -10 -15 -10
-8 0 -15 5 -15 10 0 6 7 10 15 10 8 0 15 -4 15 -10z"/>
<path d="M2560 2213 c0 -5 32 -30 72 -57 68 -47 72 -48 85 -30 8 10 18 18 23
17 19 -5 2 34 -24 55 -24 17 -43 22 -93 22 -35 0 -63 -3 -63 -7z"/>
<path d="M4784 2197 l-27 -24 18 -31 c17 -29 20 -30 44 -17 14 7 50 32 80 54
l55 41 -72 0 c-60 0 -75 -4 -98 -23z"/>
<path d="M4711 2151 c-11 -7 -10 -14 5 -40 19 -33 41 -40 50 -17 5 14 -22 66
-35 66 -3 0 -12 -4 -20 -9z"/>
<path d="M2805 2120 c3 -5 0 -20 -7 -35 -10 -22 -9 -28 3 -36 21 -13 24 -12
42 26 10 20 12 37 7 40 -17 11 -51 14 -45 5z"/>
<path d="M4660 2120 c-12 -8 -12 -14 3 -45 15 -31 20 -34 37 -25 19 10 19 13
5 40 -18 35 -27 41 -45 30z"/>
<path d="M2869 2077 c-7 -12 -16 -25 -21 -28 -10 -6 17 -39 31 -39 9 0 31 45
31 64 0 25 -29 26 -41 3z"/>
<path d="M4600 2090 c-12 -8 -12 -14 3 -45 15 -31 20 -34 37 -25 19 10 19 13
5 40 -18 35 -27 41 -45 30z"/>
<path d="M2920 2034 c-10 -30 -10 -38 1 -45 22 -14 27 -11 39 27 10 30 10 38
-1 45 -22 14 -27 11 -39 -27z"/>
<path d="M4540 2060 c-12 -8 -12 -14 3 -45 15 -31 20 -34 37 -25 19 10 19 12
3 45 -18 38 -21 39 -43 25z"/>
<path d="M2982 2015 c-17 -37 -15 -55 7 -55 20 0 47 52 36 69 -11 19 -31 12
-43 -14z"/>
<path d="M4476 2031 c-10 -16 15 -71 33 -71 28 0 31 10 14 46 -16 33 -36 43
-47 25z"/>
<path d="M3043 1984 c-15 -31 -15 -36 -3 -44 23 -15 30 -12 40 16 14 36 12 51
-5 58 -11 4 -21 -5 -32 -30z"/>
<path d="M4421 2011 c-11 -7 -11 -15 -1 -45 12 -38 17 -41 39 -27 11 7 11 15
1 45 -12 38 -17 41 -39 27z"/>
<path d="M3101 1959 c-12 -34 -7 -49 15 -49 14 0 34 38 34 66 0 28 -38 15 -49
-17z"/>
<path d="M4350 1976 c0 -28 20 -66 34 -66 23 0 29 19 16 51 -13 30 -50 41 -50
15z"/>
<path d="M3163 1936 c-12 -38 -9 -46 19 -46 19 0 25 31 12 64 -10 25 -20 19
-31 -18z"/>
<path d="M4300 1930 c0 -32 4 -40 18 -40 28 0 31 8 19 46 -15 48 -37 45 -37
-6z"/>
<path d="M2586 2008 c-12 -17 -13 -24 -3 -30 15 -9 52 26 43 41 -11 17 -23 13
-40 -11z"/>
<path d="M2774 1858 c-4 -5 -4 -11 -1 -14 6 -6 37 6 37 15 0 11 -30 9 -36 -1z"/>
<path d="M4537 1843 c-7 -12 11 -53 22 -53 15 0 21 14 14 38 -5 21 -27 30 -36
15z"/>
<path d="M3074 1775 c-4 -9 -3 -19 0 -23 9 -8 42 12 39 24 -4 16 -33 16 -39
-1z"/>
<path d="M3057 1723 c-15 -14 -7 -43 12 -43 20 0 35 25 25 41 -6 11 -28 12
-37 2z"/>
<path d="M4344 1754 c9 -36 14 -40 27 -27 16 16 7 47 -15 51 -16 3 -18 0 -12
-24z"/>
<path d="M3291 1680 c-14 -64 -14 -60 7 -60 15 0 21 12 29 55 9 49 8 55 -8 55
-13 0 -20 -13 -28 -50z"/>
<path d="M3804 1675 c-3 -8 -3 -19 0 -24 10 -16 36 -1 36 20 0 22 -28 26 -36
4z"/>
<path d="M3817 1613 c-4 -3 -7 -15 -7 -25 0 -28 34 -19 38 10 3 21 -16 31 -31
15z"/>
<path d="M5750 2275 c0 -10 7 -15 18 -13 21 4 19 22 -2 26 -10 2 -16 -3 -16
-13z"/>
<path d="M1885 2250 c3 -5 8 -10 11 -10 2 0 4 5 4 10 0 6 -5 10 -11 10 -5 0
-7 -4 -4 -10z"/>
<path d="M5522 2228 c6 -18 28 -21 28 -4 0 9 -7 16 -16 16 -9 0 -14 -5 -12
-12z"/>
<path d="M5580 2225 c0 -8 5 -15 10 -15 6 0 10 7 10 15 0 8 -4 15 -10 15 -5 0
-10 -7 -10 -15z"/>
<path d="M5604 2135 c-4 -9 -4 -18 -2 -21 9 -8 39 8 35 19 -6 18 -27 20 -33 2z"/>
<path d="M2021 2072 c-18 -13 -3 -21 53 -28 38 -6 46 -4 46 10 0 9 -6 16 -14
16 -7 0 -26 2 -42 5 -16 3 -35 1 -43 -3z"/>
<path d="M1920 2060 c0 -5 4 -10 9 -10 6 0 13 5 16 10 3 6 -1 10 -9 10 -9 0
-16 -4 -16 -10z"/>
<path d="M5165 1921 c-3 -5 -1 -12 5 -16 12 -7 30 2 30 16 0 12 -27 12 -35 0z"/>
<path d="M2357 1874 c-8 -8 1 -24 14 -24 5 0 9 7 9 15 0 15 -12 20 -23 9z"/>
<path d="M5105 1870 c-3 -5 1 -10 9 -10 9 0 16 5 16 10 0 6 -4 10 -9 10 -6 0
-13 -4 -16 -10z"/>
<path d="M2390 1860 c0 -5 5 -10 10 -10 6 0 10 5 10 10 0 6 -4 10 -10 10 -5 0
-10 -4 -10 -10z"/>
<path d="M2420 1856 c0 -9 5 -16 10 -16 6 0 10 4 10 9 0 6 -4 13 -10 16 -5 3
-10 -1 -10 -9z"/>
<path d="M2365 1790 c3 -5 10 -10 16 -10 5 0 9 5 9 10 0 6 -7 10 -16 10 -8 0
-12 -4 -9 -10z"/>
<path d="M2400 1779 c0 -11 5 -17 10 -14 6 3 10 13 10 21 0 8 -4 14 -10 14 -5
0 -10 -9 -10 -21z"/>
<path d="M5070 1774 c0 -14 3 -14 15 -4 8 7 15 14 15 16 0 2 -7 4 -15 4 -8 0
-15 -7 -15 -16z"/>
<path d="M2450 1750 c0 -5 5 -10 10 -10 6 0 10 5 10 10 0 6 -4 10 -10 10 -5 0
-10 -4 -10 -10z"/>
<path d="M2476 1743 c-9 -22 -3 -25 27 -14 36 14 39 26 7 28 -18 1 -30 -4 -34
-14z"/>
<path d="M2585 1720 c-3 -5 -2 -10 4 -10 5 0 13 5 16 10 3 6 2 10 -4 10 -5 0
-13 -4 -16 -10z"/>
<path d="M4880 1720 c-9 -6 -10 -10 -3 -10 6 0 15 5 18 10 8 12 4 12 -15 0z"/>
<path d="M4790 1670 c-13 -8 -13 -10 2 -10 9 0 20 5 23 10 8 13 -5 13 -25 0z"/>
<path d="M4723 1618 c-2 -18 0 -20 7 -8 12 18 13 30 2 30 -4 0 -9 -10 -9 -22z"/>
<path d="M4680 1610 c0 -5 5 -10 10 -10 6 0 10 5 10 10 0 6 -4 10 -10 10 -5 0
-10 -4 -10 -10z"/>
<path d="M4710 1580 c0 -5 5 -10 10 -10 6 0 10 5 10 10 0 6 -4 10 -10 10 -5 0
-10 -4 -10 -10z"/>
<path d="M3207 1513 c-12 -11 -8 -23 8 -23 8 0 15 7 15 15 0 16 -12 20 -23 8z"/>
<path d="M3152 1481 c-11 -7 -11 -9 2 -14 10 -4 16 -1 16 8 0 17 -1 17 -18 6z"/>
<path d="M3180 1461 c0 -10 124 -42 157 -40 10 0 -16 8 -57 18 -41 9 -81 20
-87 24 -7 5 -13 4 -13 -2z"/>
<path d="M4118 1453 c7 -3 16 -2 19 1 4 3 -2 6 -13 5 -11 0 -14 -3 -6 -6z"/>
<path d="M3375 1420 c3 -5 8 -10 11 -10 2 0 4 5 4 10 0 6 -5 10 -11 10 -5 0
-7 -4 -4 -10z"/>
<path d="M4600 1420 c0 -5 5 -10 10 -10 6 0 10 5 10 10 0 6 -4 10 -10 10 -5 0
-10 -4 -10 -10z"/>
</g>
</svg>
